<?xml version="1.0" encoding="UTF-8"?>
<svg version="1.1" xmlns="http://www.w3.org/2000/svg" width="1024" height="1024">
<path d="M0 0 C337.92 0 675.84 0 1024 0 C1024 337.92 1024 675.84 1024 1024 C686.08 1024 348.16 1024 0 1024 C0 686.08 0 348.16 0 0 Z " fill="#FAFAFA" transform="translate(0,0)"/>
<path d="M0 0 C1.29369507 -0.00551376 1.29369507 -0.00551376 2.61352539 -0.01113892 C14.1871909 -0.03693604 25.41317204 0.7388725 36.875 2.3125 C38.53480388 2.50565654 40.19489682 2.69637426 41.85546875 2.8828125 C90.85624546 9.05492708 140.04700377 30.67891333 177.875 62.3125 C178.81988281 63.07304687 179.76476562 63.83359375 180.73828125 64.6171875 C194.3941593 75.72705439 207.19529709 88.30324266 217.875 102.3125 C218.65617187 103.28832031 219.43734375 104.26414062 220.2421875 105.26953125 C232.34471783 120.46065393 241.9410638 137.10555655 250.875 154.3125 C251.25785156 155.04936035 251.64070312 155.7862207 252.03515625 156.54541016 C265.30458953 182.4660974 273.97092623 211.49797133 277.875 240.3125 C278.01230782 241.31034767 278.01230782 241.31034767 278.15238953 242.32835388 C279.8553035 255.02252727 280.23783628 267.57747251 280.1875 280.375 C280.18534485 281.36417419 280.1831897 282.35334839 280.18096924 283.37249756 C280.12800394 298.54843369 279.64650371 313.35250486 276.875 328.3125 C276.69227539 329.33698242 276.50955078 330.36146484 276.32128906 331.41699219 C268.45537536 374.15641492 251.30409795 415.70272011 224.875 450.3125 C224.43978027 450.8890332 224.00456055 451.46556641 223.55615234 452.05957031 C216.84446676 460.92314933 209.74420338 469.44329662 201.875 477.3125 C203.6089502 477.32651855 203.6089502 477.32651855 205.37792969 477.34082031 C249.16206703 477.75488105 297.59461383 478.68043304 330.875 511.3125 C331.6484375 512.04984375 332.421875 512.7871875 333.21875 513.546875 C347.57603192 528.19916956 352.55854561 547.79654759 352.41625977 567.79833984 C351.7308948 588.79875962 341.23169654 604.68266796 326.28515625 618.75 C314.15212207 629.25921457 300.10778052 635.68511717 284.875 640.3125 C283.33779297 640.78816406 283.33779297 640.78816406 281.76953125 641.2734375 C272.979325 643.72257083 263.94298013 644.57794295 254.875 645.3125 C253.7303125 645.41046875 252.585625 645.5084375 251.40625 645.609375 C244.2874455 645.93962882 238.63207333 644.68744042 232.875 640.3125 C231.01559371 638.01413573 230.06986216 636.06587802 228.875 633.3125 C228.545 632.6525 228.215 631.9925 227.875 631.3125 C227.2751345 625.31384501 228.54357462 621.20681629 231.875 616.3125 C237.6173028 609.92499464 244.60395185 609.08659217 252.6875 608.4375 C272.3030314 606.5892049 295.04482608 601.52907277 308.875 586.3125 C315.20469735 577.62926622 318.08446697 569.06163773 316.875 558.3125 C315.14812549 550.15890504 312.63923923 543.40072457 306.875 537.3125 C306.33488281 536.72082031 305.79476562 536.12914062 305.23828125 535.51953125 C294.56620058 525.03264938 279.00841474 521.48669514 264.875 518.3125 C264.14206726 518.14715759 263.40913452 517.98181519 262.6539917 517.8114624 C256.13425257 516.42159487 249.67997245 515.69921693 243.03515625 515.22265625 C241.88136978 515.13959732 240.72758331 515.05653839 239.53883362 514.97096252 C225.05545584 514.01881802 210.56357744 513.83084845 196.05297852 513.77709961 C192.05761136 513.76027071 188.06392725 513.70121771 184.06913662 513.63395596 C180.93850299 513.58906547 177.80828261 513.57560093 174.67735481 513.57048225 C173.20344136 513.56267277 171.72953508 513.54328988 170.25594902 513.51125908 C160.4375104 513.31105911 154.41804437 514.78780194 146.875 521.3125 C87.76857893 560.75741552 10.46846999 573.41957743 -58.625 560.1875 C-80.2241612 555.7461779 -101.19417281 548.71360943 -121.125 539.3125 C-121.95789551 538.92481445 -122.79079102 538.53712891 -123.64892578 538.13769531 C-146.08436127 527.61583369 -166.86526472 514.03787142 -185.51049805 497.72216797 C-186.6467419 496.73008087 -187.78945162 495.74537474 -188.93676758 494.76611328 C-201.62647193 483.85744794 -214.16527536 471.80039277 -224.125 458.3125 C-224.59389648 457.68762695 -225.06279297 457.06275391 -225.54589844 456.41894531 C-262.91960813 406.50216337 -284.80475314 347.30169166 -284.375 284.5625 C-284.37156586 283.73455933 -284.36813171 282.90661865 -284.36459351 282.05358887 C-284.17060639 242.00656106 -276.12719488 204.08350099 -260.125 167.3125 C-259.52365234 165.92804688 -259.52365234 165.92804688 -258.91015625 164.515625 C-250.4516845 145.32460056 -239.58358744 127.6491943 -226.59912109 111.19238281 C-225.16330981 109.36135484 -223.76204902 107.50784166 -222.36328125 105.6484375 C-208.53410323 87.61468057 -191.53271638 70.62416035 -173.125 57.3125 C-171.10396717 55.68774812 -169.08313942 54.06274111 -167.0625 52.4375 C-119.75433413 15.73605247 -59.02303249 0.12046875 0 0 Z " fill="#111415" transform="translate(450.125,189.6875)"/>
<path d="M0 0 C3.17960887 0.58509291 4.87977696 1.4845785 7.21484375 3.703125 C7.81224365 4.26483398 8.40964355 4.82654297 9.02514648 5.40527344 C9.65622314 6.0140332 10.2872998 6.62279297 10.9375 7.25 C11.5962915 7.87680664 12.25508301 8.50361328 12.93383789 9.14941406 C14.96511578 11.09027754 16.98393592 13.04334842 19 15 C19.60714844 15.58523438 20.21429687 16.17046875 20.83984375 16.7734375 C36.65002804 32.05544191 36.65002804 32.05544191 40 38 C39.81944379 41.42411961 38.32548915 42.98631944 35.875 45.25 C33.43721794 47.58477719 31.13009994 49.93359803 28.9375 52.5 C18.33689909 64.72078008 6.94256381 76.16056482 -4.56030273 87.5234375 C-5.06444702 88.0233168 -5.56859131 88.52319611 -6.0880127 89.03822327 C-7.46477923 90.40309009 -8.84446678 91.76500866 -10.22436523 93.12670898 C-12.3507243 95.32788057 -14.3654262 97.54645892 -16.36376953 99.859375 C-19.95220027 103.99703638 -23.74352608 107.88822018 -27.62109375 111.75390625 C-28.32468521 112.45845444 -29.02827667 113.16300262 -29.75318909 113.88890076 C-31.23014648 115.36653367 -32.70834742 116.84292457 -34.18774414 118.31811523 C-36.43165085 120.55666481 -38.67016704 122.80050473 -40.90820312 125.04492188 C-42.35384618 126.48990404 -43.79979945 127.93457592 -45.24609375 129.37890625 C-45.9046788 130.03951553 -46.56326385 130.70012482 -47.24180603 131.38075256 C-51.0909929 135.21090648 -55.04448545 138.86303768 -59.16363525 142.40174866 C-62.30080455 145.1321349 -65.29436918 148.0146196 -68.3125 150.875 C-73.45714919 155.71304824 -78.6926382 160.33418248 -84.21484375 164.7421875 C-86.82150606 166.85530225 -89.35562916 169.02896376 -91.8840332 171.23388672 C-99.60450531 177.95722591 -107.62981478 184.20209982 -115.81689453 190.34472656 C-118.06253763 192.04741726 -120.28082441 193.7814587 -122.49609375 195.5234375 C-123.93486301 196.64066727 -125.37366393 197.75785627 -126.8125 198.875 C-127.47620605 199.40544922 -128.13991211 199.93589844 -128.82373047 200.48242188 C-133.4327809 204.02435225 -133.4327809 204.02435225 -135.98461914 203.91479492 C-138.78480899 202.64376992 -139.80844469 200.96429498 -141.5390625 198.43359375 C-142.19753174 197.48009033 -142.85600098 196.52658691 -143.53442383 195.54418945 C-144.22431396 194.51898193 -144.9142041 193.49377441 -145.625 192.4375 C-146.33487061 191.40004639 -147.04474121 190.36259277 -147.77612305 189.29370117 C-152.73340171 182.00444656 -157.50465941 174.61489575 -162.08203125 167.08203125 C-163.62170662 164.60788895 -165.20063649 162.28751891 -167 160 C-165.45597209 155.73412802 -162.24755273 153.56668504 -158.75 150.9375 C-157.47517376 149.95714392 -156.20043664 148.97667195 -154.92578125 147.99609375 C-154.27303223 147.49835449 -153.6202832 147.00061523 -152.94775391 146.48779297 C-149.92711892 144.18047916 -146.92947457 141.84430998 -143.9375 139.5 C-143.36056396 139.04826416 -142.78362793 138.59652832 -142.18920898 138.13110352 C-137.59903334 134.51641249 -133.12388414 130.77855859 -128.68334961 126.98217773 C-125.33273268 124.117883 -121.93720047 121.32320371 -118.5 118.5625 C-113.7450895 114.69609833 -109.23338355 110.61471132 -104.765625 106.42407227 C-101.9809762 103.81346401 -99.16271392 101.25783064 -96.27758789 98.75830078 C-82.47189601 86.69842134 -69.52549485 73.68641933 -56.58496094 60.71533203 C-53.84685668 57.9718009 -51.1033562 55.23374568 -48.359375 52.49609375 C-46.59082463 50.72688353 -44.82258398 48.95736363 -43.0546875 47.1875 C-41.84363846 45.9794873 -41.84363846 45.9794873 -40.60812378 44.74707031 C-36.3857493 40.50730792 -32.31951962 36.19179666 -28.42654419 31.64672852 C-26.70907262 29.66416854 -24.88654018 27.82148707 -23 26 C-19.81733309 22.86001253 -16.84615533 19.60889096 -13.93359375 16.21875 C-10.73967623 12.5538103 -7.42990675 8.9935741 -4.13671875 5.41796875 C-1.9003945 2.9971754 -1.9003945 2.9971754 0 0 Z " fill="#FAFAFA" transform="translate(601,278)"/>
<path d="M0 0 C3.6823373 3.26859154 5.92757 7.00079809 8.1875 11.3125 C8.57043213 12.03872559 8.95336426 12.76495117 9.34790039 13.51318359 C14.37004509 23.32431295 18.26159293 33.64398019 22 44 C22.279646 44.67611328 22.55929199 45.35222656 22.84741211 46.04882812 C23.5234375 47.8515625 23.5234375 47.8515625 24 51 C22.32421875 53.703125 22.32421875 53.703125 19.6875 56.25 C18.7330863 57.20836436 17.7813143 58.16936585 16.83203125 59.1328125 C16.34943848 59.61266602 15.8668457 60.09251953 15.36962891 60.58691406 C13.37692407 62.64284554 11.63866195 64.87162221 9.875 67.125 C4.01236597 74.3785929 -2.47454033 81.04364352 -8.90478516 87.79150391 C-10.91086664 89.9060475 -12.9017513 92.03361143 -14.88671875 94.16796875 C-22.29158089 102.12151288 -29.8273405 109.92899139 -37.5 117.625 C-38.7370166 118.86890503 -38.7370166 118.86890503 -39.99902344 120.13793945 C-44.3046099 124.43260912 -48.69250554 128.5554179 -53.30273438 132.52099609 C-55.29838439 134.26001333 -57.16174619 136.09609427 -59 138 C-62.12845964 141.17089998 -65.36855352 144.1256996 -68.74609375 147.02734375 C-70.95954037 148.96458906 -73.12186491 150.95084932 -75.27783203 152.95166016 C-80.40630624 157.70810378 -85.64610754 162.24107436 -91.09765625 166.62890625 C-93.78616381 168.82530476 -96.41991675 171.06997383 -99.04345703 173.34277344 C-108.85795071 181.84343067 -118.83595158 190.06644135 -129.625 197.3125 C-130.20507812 197.71621826 -130.78515625 198.11993652 -131.3828125 198.53588867 C-133.0390625 199.61328125 -133.0390625 199.61328125 -136 201 C-139.93671456 199.74185328 -142.56273169 196.70992066 -145.39453125 193.8359375 C-145.90497482 193.32503571 -146.4154184 192.81413391 -146.94132996 192.28775024 C-148.02031057 191.20575408 -149.09686524 190.12133401 -150.17114258 189.03466797 C-151.79141795 187.39631724 -153.41936932 185.76593063 -155.04882812 184.13671875 C-160.06614774 179.10179046 -165.00668418 174.03519234 -169.60424805 168.60791016 C-170.9852963 166.95245535 -170.9852963 166.95245535 -172.68286133 165.47412109 C-174 164 -174 164 -174 161 C-172.66162109 159.73242188 -172.66162109 159.73242188 -170.7734375 158.46875 C-170.07814941 157.99348877 -169.38286133 157.51822754 -168.66650391 157.02856445 C-167.91030762 156.52413818 -167.15411133 156.01971191 -166.375 155.5 C-164.80523927 154.42355981 -163.23756026 153.34407817 -161.671875 152.26171875 C-160.88361328 151.71692871 -160.09535156 151.17213867 -159.28320312 150.61083984 C-150.74543283 144.58729318 -142.70214322 137.81770737 -134.64453125 131.17578125 C-132.85774096 129.70570416 -131.06322861 128.24497028 -129.26171875 126.79296875 C-123.60168232 122.22170878 -118.14511692 117.49175653 -112.80078125 112.5546875 C-110.60571477 110.55249297 -108.39011577 108.58960266 -106.1484375 106.640625 C-102.12667872 103.13108693 -98.20038426 99.53193021 -94.3125 95.875 C-93.24140991 94.8686853 -93.24140991 94.8686853 -92.14868164 93.84204102 C-85.05549549 87.13140873 -78.16379688 80.22304587 -71.30786133 73.27099609 C-70.47279053 72.42746582 -69.63771973 71.58393555 -68.77734375 70.71484375 C-68.04765381 69.97355225 -67.31796387 69.23226074 -66.56616211 68.46850586 C-64.47490716 66.45683439 -62.35197773 64.55094824 -60.15869141 62.65429688 C-56.17268826 59.1924916 -52.40949136 55.55457064 -48.68359375 51.81640625 C-47.6933596 50.82760719 -47.6933596 50.82760719 -46.68312073 49.8188324 C-45.29964494 48.43603165 -43.91740917 47.05198924 -42.53637695 45.66674805 C-40.44268331 43.56769657 -38.34370126 41.4740406 -36.24414062 39.38085938 C-34.89030429 38.02636214 -33.53677825 36.67155469 -32.18359375 35.31640625 C-31.25830116 34.39415001 -31.25830116 34.39415001 -30.3143158 33.45326233 C-26.58195081 29.70110069 -23.03529916 25.83278811 -19.58120728 21.82275391 C-17.10155218 18.96430449 -14.51809857 16.20455064 -11.9375 13.4375 C-7.85505089 9.0398899 -3.85288278 4.60205443 0 0 Z " fill="#FAFAFA" transform="translate(661,347)"/>
<path d="M0 0 C4.06782239 3.79918831 7.11008758 7.81857423 10.16015625 12.4609375 C10.63190781 13.16973053 11.10365936 13.87852356 11.58970642 14.60879517 C12.58149151 16.10132146 13.57050718 17.59569137 14.55688477 19.09179688 C16.05581004 21.36485495 17.56324145 23.63207443 19.07226562 25.8984375 C20.03956745 27.35643595 21.00638056 28.81475878 21.97265625 30.2734375 C22.41754898 30.94345795 22.86244171 31.61347839 23.32081604 32.30380249 C26.05127657 36.45096889 28.57791204 40.66514656 31 45 C30.28714844 45.70125 29.57429687 46.4025 28.83984375 47.125 C22.4852043 53.38794574 22.4852043 53.38794574 16.5 60 C13.65875327 63.33300097 10.6155423 66.42582373 7.5 69.5 C3.7521253 73.20303157 0.15575965 76.97646727 -3.265625 80.984375 C-5.25912581 83.30114621 -7.31554388 85.55419984 -9.375 87.8125 C-13.21806298 92.07610017 -16.89322734 96.44552273 -20.5 100.91015625 C-22.32003572 103.15960665 -24.15218882 105.39473792 -26 107.62109375 C-33.53891153 116.74013358 -40.59467066 126.12434483 -47.42675781 135.78271484 C-48.93732589 137.9116688 -50.46240515 140.02935757 -51.9921875 142.14453125 C-70.54820624 167.91643803 -85.63871364 195.22309398 -99 224 C-105.63173993 219.39812504 -111.26995731 214.04068969 -116.9375 208.3125 C-117.82050781 207.4248999 -118.70351563 206.5372998 -119.61328125 205.62280273 C-125.47308198 199.68095175 -130.96498742 193.66189164 -136 187 C-137.16015625 185.80697266 -137.16015625 185.80697266 -138.34375 184.58984375 C-140 182 -140 182 -139.578125 179.30859375 C-137.43422347 174.8138299 -135.15408634 170.42352653 -132.75 166.0625 C-131.95698486 164.62028076 -131.95698486 164.62028076 -131.14794922 163.14892578 C-114.51497648 133.17264508 -94.9487151 105.32131069 -73 79 C-71.52072424 77.16675469 -70.04156062 75.33341889 -68.5625 73.5 C-64.64204257 68.70376849 -60.5314826 64.11446721 -56.33984375 59.5546875 C-54.34165152 57.37302185 -52.37851111 55.16988691 -50.4375 52.9375 C-46.34687617 48.24085782 -42.19401647 43.60457531 -38 39 C-37.54367187 38.49710449 -37.08734375 37.99420898 -36.6171875 37.47607422 C-24.85368804 24.55273774 -12.40306498 12.30370595 0 0 Z " fill="#FAFAFA" transform="translate(390,437)"/>
<path d="M0 0 C3.54208647 2.67350526 6.31740975 5.39471217 9.0625 8.875 C12.58639486 13.26236579 16.15720235 17.5963602 19.8125 21.875 C20.24892822 22.39046387 20.68535645 22.90592773 21.13500977 23.43701172 C30.62721274 34.5277077 40.80024642 44.98684982 51.1184082 55.30371094 C53.06946741 57.25697528 55.01233836 59.21815254 56.95507812 61.1796875 C64.00057849 68.25638462 71.15007185 74.8160668 79 81 C80.10233733 81.93417904 81.19865889 82.87556972 82.28515625 83.828125 C107.74288628 106.02755203 141.78480624 131.26160208 174 142 C174 142.66 174 143.32 174 144 C171.99618821 145.75409664 169.98770853 147.38560577 167.875 149 C167.23828369 149.49056885 166.60156738 149.9811377 165.94555664 150.48657227 C163.97020167 151.99980179 161.98593864 153.5006986 160 155 C159.43941895 155.42909668 158.87883789 155.85819336 158.30126953 156.30029297 C150.84596731 161.98278447 143.02100333 166.94405775 134.9375 171.6875 C134.03249756 172.22947021 133.12749512 172.77144043 132.19506836 173.32983398 C131.33534424 173.82298096 130.47562012 174.31612793 129.58984375 174.82421875 C128.82534912 175.26854248 128.06085449 175.71286621 127.27319336 176.1706543 C124.4031426 177.21775584 122.89362673 176.89179771 120 176 C117.38598213 174.64971262 114.89053438 173.26380901 112.375 171.75 C111.26717163 171.08943604 111.26717163 171.08943604 110.13696289 170.41552734 C90.37822999 158.46954287 72.026297 144.3821519 54 130 C53.04480469 129.24074219 52.08960938 128.48148438 51.10546875 127.69921875 C45.19497067 122.93868882 39.56983739 117.94337301 34.01953125 112.7734375 C31.84469089 110.75167791 29.61522714 108.80964263 27.359375 106.87890625 C22.33938605 102.50345174 17.65054732 97.8006791 12.9543457 93.0847168 C11.4400742 91.56508332 9.9205257 90.05087483 8.40039062 88.53710938 C3.05572662 83.19642777 -2.09804638 77.75325154 -7 72 C-8.03281838 70.83126317 -9.06795117 69.66456723 -10.10546875 68.5 C-15.88745299 61.95486423 -21.4415831 55.29741706 -26.6875 48.3125 C-27.19240967 47.64154297 -27.69731934 46.97058594 -28.2175293 46.27929688 C-30.44899183 43.26664971 -32.38331783 40.39498624 -34 37 C-33.28714844 36.2265625 -32.57429688 35.453125 -31.83984375 34.65625 C-30.87215294 33.60439007 -29.90472318 32.55228994 -28.9375 31.5 C-28.43234863 30.95045654 -27.92719727 30.40091309 -27.40673828 29.8347168 C-24.68385296 26.86425689 -21.99924463 23.87101679 -19.375 20.8125 C-16.16814502 17.1069714 -12.71021463 13.69360791 -9.22265625 10.25390625 C-5.98749446 6.97325888 -2.97772982 3.51391268 0 0 Z " fill="#FAFAFA" transform="translate(441,510)"/>
<path d="M0 0 C3.88388656 1.5818384 6.50166062 4.22809853 9.39453125 7.1640625 C10.16019661 7.93041519 10.16019661 7.93041519 10.94132996 8.71224976 C12.02031057 9.79424592 13.09686524 10.87866599 14.17114258 11.96533203 C15.79141795 13.60368276 17.41936932 15.23406937 19.04882812 16.86328125 C33.76934368 31.63094989 33.76934368 31.63094989 39 40 C38.58975586 40.37995117 38.17951172 40.75990234 37.75683594 41.15136719 C28.81463992 49.45307534 20.01285234 57.88147892 11.375 66.5 C10.54709961 67.32338867 9.71919922 68.14677734 8.86621094 68.99511719 C4.60394834 73.26776289 0.49914479 77.61525986 -3.43603516 82.19091797 C-5.6854603 84.79289117 -8.03065593 87.29567416 -10.375 89.8125 C-14.64395194 94.43299549 -18.68031294 99.19106752 -22.625 104.09375 C-24.83778616 106.80150148 -27.1013385 109.45182971 -29.39233398 112.09301758 C-35.54448179 119.18806053 -41.38358564 126.47365288 -47 134 C-47.53383301 134.71317383 -48.06766602 135.42634766 -48.61767578 136.16113281 C-56.66775382 146.93546814 -64.52251067 157.81990257 -72 169 C-72.43344727 169.64549805 -72.86689453 170.29099609 -73.31347656 170.95605469 C-81.25033408 182.82902956 -88.43250512 195.12101759 -95.54882812 207.49902344 C-97.0083518 210.01439366 -98.49772306 212.50997039 -100 215 C-103.31991008 212.78672662 -103.83621773 211.7272321 -105.41796875 208.1796875 C-105.86406494 207.18050293 -106.31016113 206.18131836 -106.76977539 205.15185547 C-107.47154907 203.52981201 -107.47154907 203.52981201 -108.1875 201.875 C-108.6714624 200.76656738 -109.1554248 199.65813477 -109.65405273 198.51611328 C-114.14852178 188.01937247 -117.89499749 177.31339277 -121.25830078 166.40527344 C-121.71833032 164.91343307 -122.19312226 163.42595601 -122.69091797 161.94628906 C-124.28433197 157.01877899 -123.98445316 153.96763933 -121.67211914 149.34594727 C-117.12478393 141.74136039 -112.37083023 134.29708415 -107.4375 126.9375 C-107.04770966 126.35416901 -106.65791931 125.77083801 -106.25631714 125.16983032 C-99.14851041 114.54526905 -91.76611336 104.15587409 -84 94 C-83.50951172 93.35788574 -83.01902344 92.71577148 -82.51367188 92.05419922 C-76.75429457 84.54937798 -70.75660686 77.27055172 -64.61328125 70.078125 C-62.22117731 67.2729268 -59.88544149 64.42536843 -57.5625 61.5625 C-42.95873256 43.65518732 -42.95873256 43.65518732 -35.66186523 36.66308594 C-34.06452346 35.06457085 -32.62452377 33.40969509 -31.171875 31.6796875 C-25.47844161 25.1293477 -19.21692489 19.11192528 -13.0625 13 C-11.79338627 11.7359115 -10.52450411 10.47159044 -9.25585938 9.20703125 C-6.1732368 6.13533276 -3.08749572 3.06679992 0 0 Z " fill="#FAFAFA" transform="translate(330,370)"/>
<path d="M0 0 C2.49551328 1.43928588 4.93957549 2.90329506 7.375 4.4375 C8.07254395 4.87562012 8.77008789 5.31374023 9.48876953 5.76513672 C20.50711585 12.77726295 30.94783559 20.66930717 41 29 C42.00804687 29.82242187 43.01609375 30.64484375 44.0546875 31.4921875 C51.37648878 37.55491468 58.21299096 44.03200254 64.9375 50.75 C66.12653931 51.93783081 66.12653931 51.93783081 67.33959961 53.1496582 C71.53444331 57.3843558 75.57780211 61.69728175 79.44555664 66.23339844 C81.06085717 68.06916326 82.75459629 69.78815189 84.5 71.5 C88.2119656 75.16280049 91.60900738 79.04064892 95 83 C95.93075566 84.07832695 96.86176537 85.15643466 97.79296875 86.234375 C115.70668485 107.00473477 115.70668485 107.00473477 122 117 C114.54554658 123.49149211 107.02622702 129.8415805 99.21386719 135.89892578 C92.98540951 140.74739411 86.98699317 145.8583464 81 151 C77.75297443 147.83203244 74.76986763 144.60432388 71.9375 141.0625 C68.35091904 136.63447492 64.70711134 132.26513277 61 127.9375 C60.53843506 127.39681885 60.07687012 126.8561377 59.60131836 126.29907227 C51.8762918 117.30143729 43.84146679 108.67995427 35.4375 100.3125 C34.54353516 99.41466797 33.64957031 98.51683594 32.72851562 97.59179688 C27.64714931 92.51786489 22.46304592 87.65838279 17 83 C15.90502123 82.03915892 14.81122112 81.07697255 13.71875 80.11328125 C-3.76622525 64.83682105 -22.7476699 51.67630084 -42.765625 39.9375 C-45.91974934 38.04807286 -48.95904559 36.06416299 -52 34 C-47.0410041 27.70073494 -41.31963494 22.88818773 -35 18 C-34.24219238 17.41025391 -33.48438477 16.82050781 -32.70361328 16.21289062 C-30.12388323 14.21328645 -27.53260451 12.22960204 -24.9375 10.25 C-24.1110498 9.61191406 -23.28459961 8.97382813 -22.43310547 8.31640625 C-6.79325531 -3.4900563 -6.79325531 -3.4900563 0 0 Z " fill="#FAFAFA" transform="translate(334,257)"/>
<path d="M0 0 C6.12904409 5.93133299 11.73006747 12.37018177 17.3125 18.8125 C25.79492516 28.50122941 34.65773318 37.75658321 43.75 46.875 C44.63703613 47.76662842 45.52407227 48.65825684 46.43798828 49.5769043 C50.93939526 54.06778019 55.50504321 58.40499177 60.32910156 62.54736328 C62.3174087 64.27594708 64.1703887 66.10504543 66 68 C69.83600678 71.88043929 73.85697028 75.4527448 78 79 C79.00711652 79.88212099 80.013576 80.76499245 81.01953125 81.6484375 C99.7984384 98.05628439 120.19009922 112.30847867 141 126 C140 128 140 128 136.625 129.33203125 C135.08739212 129.83802541 133.5452777 130.33043682 132 130.8125 C131.17000488 131.07313232 130.34000977 131.33376465 129.48486328 131.60229492 C115.73321984 135.75147596 101.31851153 138.73419028 87 140 C85.75476563 140.1134375 84.50953125 140.226875 83.2265625 140.34375 C73.57718106 140.76237826 68.42995751 139.02882342 61 133 C59.71770901 131.98534703 58.43513718 130.97104892 57.15234375 129.95703125 C53.68945967 127.19329648 50.2718121 124.37868377 46.86572266 121.54541016 C44.32676153 119.442345 41.75505211 117.38049977 39.1875 115.3125 C34.58226644 111.54395302 30.17126466 107.59211696 25.80078125 103.5546875 C23.65307459 101.59569147 21.4830833 99.6868254 19.28222656 97.78930664 C15.26264533 94.27562092 11.45146075 90.5966782 7.68359375 86.81640625 C7.02343765 86.15720688 6.36328156 85.49800751 5.68312073 84.8188324 C4.29964494 83.43603165 2.91740917 82.05198924 1.53637695 80.66674805 C-0.55731669 78.56769657 -2.65629874 76.4740406 -4.75585938 74.38085938 C-6.10969571 73.02636214 -7.46322175 71.67155469 -8.81640625 70.31640625 C-9.43326797 69.70156876 -10.0501297 69.08673126 -10.6856842 68.45326233 C-16.65108689 62.45621884 -22.18706819 56.13212439 -27.4375 49.5 C-28.11683594 48.6440625 -28.79617188 47.788125 -29.49609375 46.90625 C-29.99238281 46.2771875 -30.48867188 45.648125 -31 45 C-29.35008783 40.10781856 -26.61478904 36.11986602 -23.75 31.875 C-23.22929932 31.09890381 -22.70859863 30.32280762 -22.17211914 29.52319336 C-18.05544132 23.44213832 -13.78640331 17.47924338 -9.4375 11.5625 C-8.84227539 10.75216309 -8.24705078 9.94182617 -7.63378906 9.10693359 C-5.23196833 5.8711665 -2.91586338 2.7936707 0 0 Z " fill="#FAFAFA" transform="translate(383,577)"/>
<path d="M0 0 C5.96626705 62.72905423 5.96626705 62.72905423 -5.6640625 79.3828125 C-6.31117188 79.95773437 -6.95828125 80.53265625 -7.625 81.125 C-8.34429688 81.78113281 -9.06359375 82.43726563 -9.8046875 83.11328125 C-10.52914062 83.73589844 -11.25359375 84.35851562 -12 85 C-12.62132812 85.55042969 -13.24265625 86.10085938 -13.8828125 86.66796875 C-15.15995833 87.79281895 -16.44418682 88.90966464 -17.734375 90.01953125 C-20.53316358 92.46605851 -23.26686454 94.98080278 -26 97.5 C-29.95911923 101.14506925 -33.95128578 104.74260831 -38.01953125 108.265625 C-40.31133155 110.27264538 -42.55996752 112.32402851 -44.8125 114.375 C-48.21083552 117.44746773 -51.67590523 120.38442622 -55.25 123.25 C-59.67935239 126.82851634 -63.85678746 130.60020822 -68 134.5 C-72.93457309 139.1399418 -77.9549624 143.57355591 -83.26953125 147.78125 C-85.29256918 149.42514921 -87.21718205 151.08686599 -89.13671875 152.84375 C-89.6663623 153.31723877 -90.19600586 153.79072754 -90.74169922 154.27856445 C-92.23112781 155.61451291 -93.7039792 156.9688758 -95.17578125 158.32421875 C-98 160 -98 160 -101.0234375 159.48046875 C-103.9579728 158.02090329 -106.60984765 156.47891782 -109.3125 154.625 C-110.34761719 153.91601562 -111.38273438 153.20703125 -112.44921875 152.4765625 C-113.63320083 151.65159871 -114.81676638 150.82603693 -116 150 C-116.67627441 149.53174805 -117.35254883 149.06349609 -118.04931641 148.58105469 C-138.12915609 134.66739343 -138.12915609 134.66739343 -143 130 C-143 129.34 -143 128.68 -143 128 C-141.40236849 126.82717224 -139.7417585 125.74013587 -138.0625 124.6875 C-120.38788189 113.1741044 -103.81905251 99.47405609 -88.34375 85.1640625 C-86.23690721 83.21874432 -84.10179026 81.3183713 -81.9375 79.4375 C-66.66461216 66.13530737 -52.02520516 52.19662801 -37.7265625 37.85693359 C-35.47771206 35.60265829 -33.22347552 33.35386624 -30.96875 31.10546875 C-29.51009548 29.6461543 -28.05175073 28.18653015 -26.59375 26.7265625 C-25.93322632 26.06806305 -25.27270264 25.4095636 -24.59216309 24.73110962 C-20.757089 20.87690051 -17.1041011 16.91568492 -13.56259155 12.78964233 C-11.19263464 10.07532124 -8.67669376 7.54462535 -6.125 5 C-5.6403125 4.51144531 -5.155625 4.02289063 -4.65625 3.51953125 C-1.12686012 0 -1.12686012 0 0 0 Z " fill="#FAFAFA" transform="translate(693,442)"/>
<path d="M0 0 C4.14729987 0.3560327 5.59364672 1.48705741 8.6796875 4.2265625 C9.62070312 5.04769531 10.56171875 5.86882812 11.53125 6.71484375 C12.46710938 7.56433594 13.40296875 8.41382813 14.3671875 9.2890625 C15.24117188 10.06636719 16.11515625 10.84367188 17.015625 11.64453125 C18.6130046 13.07234286 20.20385737 14.50752427 21.78515625 15.953125 C23.15484998 17.19227304 24.52977541 18.42654177 25.94018555 19.61914062 C32.5820278 25.26874832 38.70530254 31.44109422 44.86645508 37.60302734 C46.79163452 39.52602432 48.72467781 41.44086824 50.65820312 43.35546875 C57.69576338 50.36076998 64.24253678 57.46212259 70.3671875 65.2890625 C71.54580892 66.73477079 72.72786871 68.17768578 73.9140625 69.6171875 C74.98192456 70.92435359 76.04963666 72.23164222 77.1171875 73.5390625 C77.65472656 74.19390625 78.19226563 74.84875 78.74609375 75.5234375 C80.30306756 77.43271926 81.83919245 79.35653927 83.3671875 81.2890625 C83.87443359 81.91619141 84.38167969 82.54332031 84.90429688 83.18945312 C88.42014357 87.74308078 88.42014357 87.74308078 88.17114258 90.31030273 C87.26215818 92.54756922 86.33736193 93.60385654 84.55078125 95.21484375 C83.95885986 95.75713623 83.36693848 96.29942871 82.75708008 96.8581543 C82.11279053 97.433479 81.46850098 98.00880371 80.8046875 98.6015625 C79.44224319 99.8432398 78.08028106 101.08544635 76.71875 102.328125 C76.00750977 102.97297852 75.29626953 103.61783203 74.56347656 104.28222656 C70.20507744 108.26466773 65.93350352 112.34084092 61.64819336 116.40161133 C58.66516 119.209954 55.73845848 121.94197511 52.3671875 124.2890625 C48.12521709 122.75098085 46.0245778 119.5909971 43.4296875 116.1015625 C39.30975174 110.71303104 35.06150315 105.47633515 30.6171875 100.3515625 C30.09906494 99.74997314 29.58094238 99.14838379 29.04711914 98.52856445 C25.91018464 94.92793084 22.63000971 91.53674521 19.22753906 88.18753052 C17.47600843 86.40011305 15.84714315 84.56055754 14.22460938 82.65625 C10.04789535 77.85579691 5.59651128 73.35647195 1.1015625 68.85546875 C0.2275177 67.97809555 -0.6465271 67.10072235 -1.54705811 66.19676208 C-3.38797031 64.35081272 -5.23021727 62.5061936 -7.07373047 60.6628418 C-9.86584957 57.86853869 -12.64986938 55.06633482 -15.43359375 52.26367188 C-17.23388361 50.46044678 -19.03464959 48.65769687 -20.8359375 46.85546875 C-22.06307465 45.61755333 -22.06307465 45.61755333 -23.31500244 44.35462952 C-29.1093706 38.58261719 -35.22595853 33.36825478 -41.6328125 28.2890625 C-42.77691841 27.37577179 -42.77691841 27.37577179 -43.94413757 26.44403076 C-46.45201333 24.44374509 -48.96666894 22.45221639 -51.48632812 20.46679688 C-54.7258069 17.89356977 -57.77962724 15.29956625 -60.6328125 12.2890625 C-40.9897956 5.50066695 -20.69341406 1.64657273 0 0 Z " fill="#F9F9FA" transform="translate(430.6328125,225.7109375)"/>
<path d="M0 0 C6.47570768 1.44199502 11.59795938 4.40446177 17.25 7.8125 C18.20277832 8.38057373 19.15555664 8.94864746 20.13720703 9.53393555 C29.6928818 15.29756286 38.89299565 21.55624456 48 28 C46.64768813 31.02977429 45.14519457 33.08472613 42.76953125 35.390625 C42.13523193 36.01324219 41.50093262 36.63585937 40.84741211 37.27734375 C40.17589111 37.92832031 39.50437012 38.57929688 38.8125 39.25 C37.43311452 40.60756743 36.05548251 41.96691902 34.6796875 43.328125 C34.06077637 43.9355957 33.44186523 44.54306641 32.80419922 45.16894531 C30.39515042 47.61385276 28.13771179 50.16951625 25.92578125 52.79296875 C23.08280343 56.0511482 20.09261878 59.16805218 17.125 62.3125 C12.20615285 67.54055027 7.54633152 72.85853051 3.06640625 78.46875 C0.99887218 81.00138153 -1.16113341 83.4073116 -3.375 85.8125 C-8.37363524 91.31186209 -12.9156847 97.1330838 -17.45507812 103.00927734 C-19.08938725 105.11518073 -20.73863336 107.20872517 -22.390625 109.30078125 C-32.50782134 122.14625755 -42.26396899 135.22542854 -50.79296875 149.19140625 C-51.19128906 149.78824219 -51.58960938 150.38507813 -52 151 C-52.33 151 -52.66 151 -53 151 C-54.75753733 114.61246793 -43.87596356 77.3785231 -28 45 C-27.61086426 44.20255371 -27.22172852 43.40510742 -26.82080078 42.58349609 C-19.32892736 27.40025242 -10.25062308 13.45788708 0 0 Z " fill="#F9F9FA" transform="translate(255,318)"/>
<path d="M0 0 C27.97388067 0.70576304 55.50953129 14.72655082 80 27 C78.62267001 31.10284014 76.76356341 33.66842384 73.8125 36.8125 C73.00425781 37.68519531 72.19601562 38.55789063 71.36328125 39.45703125 C70.58339844 40.29621094 69.80351563 41.13539063 69 42 C67.82714939 43.32789696 66.65992079 44.66079403 65.5 46 C61.39083717 50.71828579 57.19491508 55.3580078 53 60 C48.8861812 56.05378123 45.31079014 51.82150106 41.75 47.375 C41.17427246 46.66279297 40.59854492 45.95058594 40.00537109 45.21679688 C37.54971285 42.1786145 35.10510866 39.13271296 32.6796875 36.0703125 C23.26061207 24.28751472 12.66225017 13.4736097 1.87890625 2.94140625 C0 1 0 1 0 0 Z " fill="#F9F9F9" transform="translate(491,230)"/>
<path d="M0 0 C3.57858415 1.19286138 4.20752828 2.27670438 6.4375 5.25 C14.79695029 15.92322671 24.36304151 25.47175672 33.90261841 35.07785034 C34.99323991 36.17653255 36.08237857 37.27668908 37.16989136 38.37844849 C43.47841496 44.76072752 49.855308 50.73129969 56.93334961 56.26660156 C59 58 59 58 60 60 C38.22576042 57.82007038 16.52684216 48.6120032 -2.75 38.6875 C-3.75724121 38.17171387 -4.76448242 37.65592773 -5.80224609 37.12451172 C-6.72859863 36.63354004 -7.65495117 36.14256836 -8.609375 35.63671875 C-9.43405273 35.20061279 -10.25873047 34.76450684 -11.10839844 34.31518555 C-13 33 -13 33 -14 30 C-13.36669922 27.98217773 -13.36669922 27.98217773 -12.3046875 25.68359375 C-11.92046631 24.84086914 -11.53624512 23.99814453 -11.14038086 23.12988281 C-10.72280518 22.24139648 -10.30522949 21.35291016 -9.875 20.4375 C-9.46064697 19.53741211 -9.04629395 18.63732422 -8.61938477 17.70996094 C-5.86208279 11.74991763 -3.04698815 5.81836933 0 0 Z " fill="#F8F8F9" transform="translate(333,652)"/>
<path d="M0 0 C0 4.21753109 -2.08587855 7.03702009 -4.1875 10.5625 C-4.84613037 11.67359131 -4.84613037 11.67359131 -5.51806641 12.80712891 C-9.06150017 18.67106317 -12.88272017 24.30850777 -16.875 29.875 C-17.4218042 30.64142822 -17.9686084 31.40785645 -18.53198242 32.19750977 C-19.0551001 32.91350342 -19.57821777 33.62949707 -20.1171875 34.3671875 C-20.57722168 34.99737793 -21.03725586 35.62756836 -21.51123047 36.27685547 C-23 38 -23 38 -27 41 C-30.96 39.02 -34.92 37.04 -39 35 C-35.35283603 31.25775168 -31.54895356 27.81316229 -27.5625 24.4375 C-26.95921875 23.92300293 -26.3559375 23.40850586 -25.734375 22.87841797 C-23.18671743 20.70592012 -20.6347832 18.53849132 -18.08154297 16.37255859 C-16.21931821 14.79203905 -14.35963835 13.20856109 -12.5 11.625 C-11.93740479 11.1498999 -11.37480957 10.6747998 -10.79516602 10.18530273 C-7.00727697 6.95828986 -3.48210518 3.55552306 0 0 Z " fill="#F6F6F6" transform="translate(665,586)"/>
<path d="M0 0 C0.495 1.485 0.495 1.485 1 3 C0.48050781 3.44730469 -0.03898438 3.89460937 -0.57421875 4.35546875 C-3.58322276 6.96401382 -6.55816352 9.55816352 -9.375 12.375 C-16.08719874 19.08719874 -23.36968717 25.18908331 -30.59960938 31.33056641 C-35.35076618 35.3891686 -39.95323205 39.58980748 -44.47387695 43.90356445 C-48.09340657 47.31446881 -51.90430235 50.17555769 -56 53 C-54.69983484 50.10368126 -53.36489577 48.14805694 -51.0234375 46.01171875 C-50.43916992 45.47385742 -49.85490234 44.93599609 -49.25292969 44.38183594 C-48.63321289 43.82270508 -48.01349609 43.26357422 -47.375 42.6875 C-46.73981445 42.10645508 -46.10462891 41.52541016 -45.45019531 40.92675781 C-41.64687566 37.45771051 -37.80971726 34.02924512 -33.9140625 30.6640625 C-29.891701 27.16707067 -25.95620434 23.57140635 -22 20 C-20.33359149 18.49971321 -18.66692647 16.99971128 -17 15.5 C-16.1853125 14.76652344 -15.370625 14.03304687 -14.53125 13.27734375 C-12.76143939 11.68506044 -10.99051451 10.09401513 -9.21875 8.50390625 C-7.87296875 7.29541016 -7.87296875 7.29541016 -6.5 6.0625 C-5.6853125 5.33160156 -4.870625 4.60070312 -4.03125 3.84765625 C-2.65711081 2.5977181 -1.3135075 1.3135075 0 0 Z " fill="#0A0B0C" transform="translate(690,517)"/>
<path d="M0 0 C3.88388656 1.5818384 6.50166062 4.22809853 9.39453125 7.1640625 C9.90497482 7.67496429 10.4154184 8.18586609 10.94132996 8.71224976 C12.02031057 9.79424592 13.09686524 10.87866599 14.17114258 11.96533203 C15.79141795 13.60368276 17.41936932 15.23406937 19.04882812 16.86328125 C23.99795556 21.82940946 28.85592061 26.83597432 33.41479492 32.16748047 C36.84488529 36.13271353 40.49891852 39.89917337 44.1015625 43.70703125 C46.91203376 46.69545811 49.6481198 49.62556319 52 53 C51.505 53.99 51.505 53.99 51 55 C37.15948084 40.26440879 37.15948084 40.26440879 31.50390625 33.6875 C29.38453237 31.30939736 27.11247336 29.10032469 24.83837891 26.87133789 C23.07488108 25.07622357 21.43979288 23.22386565 19.80859375 21.30859375 C15.93013651 16.84626063 11.77964489 12.70247847 7.5625 8.5625 C6.12406358 7.14941047 4.68773558 5.73417027 3.25390625 4.31640625 C2.62814697 3.70224854 2.0023877 3.08809082 1.35766602 2.45532227 C0 1 0 1 0 0 Z " fill="#070809" transform="translate(385,294)"/>
<path d="M0 0 C4.17385471 0.52795776 6.76192299 3.01894223 9.8125 5.6875 C10.3787207 6.17589355 10.94494141 6.66428711 11.52832031 7.16748047 C24.58604093 18.52434562 36.84161371 30.69572205 49 43 C48.34 43.66 47.68 44.32 47 45 C46.443125 44.3709375 45.88625 43.741875 45.3125 43.09375 C36.88600757 33.24755371 36.88600757 33.24755371 27 25 C27 24.34 27 23.68 27 23 C26.01 23 25.02 23 24 23 C22.46484375 21.50390625 22.46484375 21.50390625 20.9375 19.5625 C18.8328667 16.84124807 18.8328667 16.84124807 16 15 C16 14.34 16 13.68 16 13 C15.44570313 12.7628125 14.89140625 12.525625 14.3203125 12.28125 C11.44851733 10.69547758 9.28854348 8.71901908 6.875 6.5 C6.00617188 5.7059375 5.13734375 4.911875 4.2421875 4.09375 C2.80591578 2.75256247 1.38954317 1.38954317 0 0 Z " fill="#0D0E0E" transform="translate(336,329)"/>
<path d="M0 0 C1.14626322 0.97866338 2.29199788 1.95794587 3.4375 2.9375 C4.07558594 3.48277344 4.71367187 4.02804687 5.37109375 4.58984375 C7.973844 6.84306399 7.973844 6.84306399 8.375 9.25 C7.83579447 13.20417392 5.95311887 14.36104271 3 17 C1.21018693 18.87597475 -0.57328174 20.75762248 -2.3515625 22.64453125 C-4 24 -4 24 -7 24 C-7 24.66 -7 25.32 -7 26 C-8.43359375 27.375 -8.43359375 27.375 -10.4375 29 C-15.44723852 33.23900951 -19.70195744 38.05526122 -24 43 C-24.66 42.34 -25.32 41.68 -26 41 C-22.57109404 37.54617745 -19.13876574 34.09580412 -15.70336914 30.6484375 C-14.53773321 29.47780575 -13.37300036 28.30627399 -12.20922852 27.13378906 C-0.30545542 15.14320167 -0.30545542 15.14320167 6 10 C5.566875 9.44570313 5.13375 8.89140625 4.6875 8.3203125 C4.130625 7.59585937 3.57375 6.87140625 3 6.125 C2.443125 5.40570313 1.88625 4.68640625 1.3125 3.9453125 C0 2 0 2 0 0 Z " fill="#0D0E10" transform="translate(362,400)"/>
<path d="M0 0 C0.66 0.33 1.32 0.66 2 1 C-0.16343185 3.1907786 -2.33061964 5.37762406 -4.5 7.5625 C-5.10070312 8.17158203 -5.70140625 8.78066406 -6.3203125 9.40820312 C-9.36227302 12.46634429 -12.43843134 15.41681115 -15.71875 18.21875 C-21.43653908 23.15374653 -26.68479447 28.57848329 -32 33.9375 C-33.07137887 35.01390654 -34.14299182 36.09008014 -35.21484375 37.16601562 C-37.81259638 39.77466745 -40.40717962 42.38644471 -43 45 C-43.66 44.34 -44.32 43.68 -45 43 C-44.35417969 42.42636719 -43.70835937 41.85273438 -43.04296875 41.26171875 C-35.38858925 34.36125898 -28.08323853 27.15804275 -20.85229492 19.81518555 C-16.62741242 15.5443948 -12.34237645 11.43616406 -7.76660156 7.54174805 C-5.03796977 5.16041723 -2.52831468 2.59152255 0 0 Z " fill="#060708" transform="translate(589,374)"/>
<path d="M0 0 C0 3 0 3 -2.01171875 5.26953125 C-3.33623047 6.52830078 -3.33623047 6.52830078 -4.6875 7.8125 C-8.9268882 11.89920855 -8.9268882 11.89920855 -12.8125 16.3125 C-15.0618805 19.07602461 -17.46595633 21.49467071 -20 24 C-21.03842342 25.03709699 -22.07616034 26.07488172 -23.11328125 27.11328125 C-26.07552083 30.07552083 -29.03776042 33.03776042 -32 36 C-32.66 35.34 -33.32 34.68 -34 34 C-33.42556152 33.43079834 -32.85112305 32.86159668 -32.25927734 32.27514648 C-29.62849048 29.66529778 -27.00172405 27.05143749 -24.375 24.4375 C-23.47136719 23.54224609 -22.56773437 22.64699219 -21.63671875 21.72460938 C-17.32400258 17.42763304 -13.14552915 13.11775954 -9.24755859 8.44116211 C-7.52888109 6.45577007 -5.62858829 4.75518665 -3.625 3.0625 C-2.93664062 2.47597656 -2.24828125 1.88945312 -1.5390625 1.28515625 C-0.77722656 0.64900391 -0.77722656 0.64900391 0 0 Z " fill="#0A0B0C" transform="translate(634,327)"/>
<path d="M0 0 C0 3 0 3 -1.44458008 4.52099609 C-2.10868896 5.05805176 -2.77279785 5.59510742 -3.45703125 6.1484375 C-8.13030487 10.06530149 -12.40306902 14.29079457 -16.6875 18.625 C-17.42033203 19.36234375 -18.15316406 20.0996875 -18.90820312 20.859375 C-21.87057534 23.84044569 -24.82823568 26.82606451 -27.78125 29.81640625 C-29.73354968 31.7377716 -31.71929522 33.54764107 -33.8125 35.3125 C-34.41707031 35.82425781 -35.02164063 36.33601563 -35.64453125 36.86328125 C-36.09183594 37.23839844 -36.53914062 37.61351562 -37 38 C-37 35 -37 35 -35.078125 33.00390625 C-34.14484375 32.19824219 -33.2115625 31.39257812 -32.25 30.5625 C-26.06643487 25.09876627 -20.208089 19.33465647 -14.375 13.5 C-13.48586914 12.61513916 -12.59673828 11.73027832 -11.68066406 10.81860352 C-10.8450293 9.98127686 -10.00939453 9.1439502 -9.1484375 8.28125 C-8.39739746 7.52908203 -7.64635742 6.77691406 -6.87255859 6.00195312 C-4.84292724 3.9412746 -4.84292724 3.9412746 -3 1 C-2.01 0.67 -1.02 0.34 0 0 Z " fill="#070809" transform="translate(647,441)"/>
<path d="M0 0 C3.12324544 1.38629244 5.24190707 2.99511571 7.64453125 5.4140625 C8.32193359 6.09339844 8.99933594 6.77273437 9.69726562 7.47265625 C10.39529297 8.18292969 11.09332031 8.89320313 11.8125 9.625 C12.49892578 10.31207031 13.18535156 10.99914062 13.89257812 11.70703125 C19.77828274 17.64285066 25.49260942 23.74600311 30.4375 30.5 C30.93121094 31.1703125 31.42492187 31.840625 31.93359375 32.53125 C32.28550781 33.0159375 32.63742187 33.500625 33 34 C32.01 34.495 32.01 34.495 31 35 C30.5359375 34.40316406 30.071875 33.80632812 29.59375 33.19140625 C24.59218831 26.91146033 19.30350899 20.97875373 13.8125 15.125 C13.13574219 14.39998291 12.45898438 13.67496582 11.76171875 12.92797852 C8.80387207 9.79867822 5.87448692 6.81252851 2.51171875 4.1171875 C1.68285156 3.41851562 0.85398437 2.71984375 0 2 C0 1.34 0 0.68 0 0 Z " fill="#080809" transform="translate(492,233)"/>
<path d="M0 0 C0.99 0.33 1.98 0.66 3 1 C2.27554688 1.59167969 1.55109375 2.18335938 0.8046875 2.79296875 C-0.16210938 3.58316406 -1.12890625 4.37335938 -2.125 5.1875 C-3.12660156 6.00476563 -4.12820313 6.82203125 -5.16015625 7.6640625 C-7.31839183 9.43933744 -9.44707405 11.23721975 -11.5625 13.0625 C-14 15 -14 15 -16 15 C-16 15.66 -16 16.32 -16 17 C-16.66 17 -17.32 17 -18 17 C-18 17.66 -18 18.32 -18 19 C-19.64556566 20.03435556 -21.3170608 21.02763513 -23 22 C-24.68477344 23.31037934 -26.35648543 24.63823078 -28 26 C-28.66 25.34 -29.32 24.68 -30 24 C-29.11699219 23.31035156 -28.23398437 22.62070312 -27.32421875 21.91015625 C-20.62415315 16.66731975 -13.96720568 11.38436832 -7.40234375 5.97265625 C-6.60957031 5.32167969 -5.81679688 4.67070312 -5 4 C-4.13503906 3.23558594 -3.27007812 2.47117187 -2.37890625 1.68359375 C-1.59386719 1.12800781 -0.80882812 0.57242187 0 0 Z M-31 26 C-29 27 -29 27 -29 27 Z " fill="#0B0C0D" transform="translate(513,445)"/>
<path d="M0 0 C0.99 0.33 1.98 0.66 3 1 C-6.75561031 9.84945678 -6.75561031 9.84945678 -10.3125 12.6875 C-12.73972051 14.77603858 -14.58899575 16.94923407 -16.57421875 19.4453125 C-19.75019948 22.9084367 -23.79747032 25.89873516 -28 28 C-26.59321194 24.77451847 -24.93721445 22.74383125 -22.3671875 20.35546875 C-21.64273438 19.67806641 -20.91828125 19.00066406 -20.171875 18.30273438 C-19.41390625 17.60470703 -18.6559375 16.90667969 -17.875 16.1875 C-17.14023437 15.50107422 -16.40546875 14.81464844 -15.6484375 14.10742188 C-11.34625545 10.10442326 -6.97579299 6.19032908 -2.53564453 2.34106445 C-1.66917247 1.58438226 -0.81343155 0.81343155 0 0 Z " fill="#090A0B" transform="translate(605,481)"/>
<path d="M0 0 C0 0.66 0 1.32 0 2 C-1.57286684 3.41438406 -3.21139996 4.75604401 -4.875 6.0625 C-8.76733774 9.17436899 -12.5598683 12.33799584 -16.25 15.6875 C-17.06082031 16.42226563 -17.87164063 17.15703125 -18.70703125 17.9140625 C-20.1646699 19.24009153 -21.62059812 20.56800506 -23.07421875 21.8984375 C-27.66681338 26 -27.66681338 26 -31 26 C-31 25.34 -31 24.68 -31 24 C-29.24055558 22.66282224 -27.47385638 21.33468928 -25.68359375 20.0390625 C-22.32169419 17.48460606 -19.13289091 14.75822537 -15.9375 12 C-15.0719751 11.25290771 -15.0719751 11.25290771 -14.18896484 10.49072266 C-13.3355249 9.75281494 -13.3355249 9.75281494 -12.46484375 9 C-11.90007324 8.51273438 -11.33530273 8.02546875 -10.75341797 7.5234375 C-9.52159864 6.45318512 -8.2972894 5.3742572 -7.07861328 4.2890625 C-6.45583496 3.73992188 -5.83305664 3.19078125 -5.19140625 2.625 C-4.62752197 2.12226562 -4.0636377 1.61953125 -3.48266602 1.1015625 C-2 0 -2 0 0 0 Z " fill="#0A0A0B" transform="translate(624,578)"/>
<path d="M0 0 C4.28278063 1.57574004 6.68518362 4.8380734 9.5 8.25 C10.55708929 9.50798259 11.61438753 10.76578962 12.671875 12.0234375 C13.21521484 12.6740918 13.75855469 13.32474609 14.31835938 13.99511719 C17.10085106 17.31245483 19.9272226 20.59195023 22.75 23.875 C23.76583028 25.05971985 24.7814745 26.24459927 25.796875 27.4296875 C26.52390625 28.27789063 27.2509375 29.12609375 28 30 C27.67 30.66 27.34 31.32 27 32 C21.70419538 26.96393512 16.95951697 21.65897927 12.38671875 15.9609375 C10.67907173 13.84244905 8.95825583 11.74578632 7.20703125 9.6640625 C6.74538574 9.11524414 6.28374023 8.56642578 5.80810547 8.00097656 C4.49667414 6.44519946 3.18391513 4.89054181 1.87109375 3.3359375 C0 1 0 1 0 0 Z " fill="#0A0B0B" transform="translate(443,511)"/>
<path d="M0 0 C0.66 0.33 1.32 0.66 2 1 C1.505 1.433125 1.01 1.86625 0.5 2.3125 C-1.33218192 3.99740483 -1.33218192 3.99740483 -1 7 C-2.6796875 8.82421875 -2.6796875 8.82421875 -4.875 10.6875 C-5.59429687 11.31011719 -6.31359375 11.93273437 -7.0546875 12.57421875 C-9 14 -9 14 -11 14 C-11.2475 14.556875 -11.495 15.11375 -11.75 15.6875 C-13.22924818 18.42410913 -14.93467439 20.67650869 -17 23 C-17.66 23 -18.32 23 -19 23 C-15.02836944 14.05337959 -7.00103597 6.65766091 0 0 Z " fill="#0A0B0C" transform="translate(391,513)"/>
<path d="M0 0 C0.66 0.33 1.32 0.66 2 1 C1.01 2.485 1.01 2.485 0 4 C-0.66 4 -1.32 4 -2 4 C-2.10441406 4.59296875 -2.20882812 5.1859375 -2.31640625 5.796875 C-3.1005641 8.32410372 -4.05054524 9.4230218 -5.9375 11.25 C-6.46214844 11.77078125 -6.98679687 12.2915625 -7.52734375 12.828125 C-9 14 -9 14 -11 14 C-11.66 15.32 -12.32 16.64 -13 18 C-17.55015893 16.48328036 -19.50057264 12.83108947 -22 9 C-18.33759908 10.56960039 -17.06096354 11.93903646 -14 15 C-9.38 10.05 -4.76 5.1 0 0 Z " fill="#0A0B0C" transform="translate(558,274)"/>
<path d="M0 0 C5.87890931 4.8726809 11.2552567 10.13822024 16.625 15.5625 C17.45773437 16.39974609 18.29046875 17.23699219 19.1484375 18.09960938 C20.73962835 19.69966833 22.32985674 21.3006852 23.91894531 22.90283203 C26.27290583 25.27501889 28.63450044 27.63932799 31 30 C27.11561496 30 26.05202394 28.41363484 23.3910675 25.78225708 C22.79408554 25.17606537 22.19710358 24.56987366 21.58203125 23.9453125 C20.65616463 23.02019363 20.65616463 23.02019363 19.71159363 22.0763855 C18.40772053 20.7701704 17.10754324 19.46025731 15.81079102 18.14697266 C13.81878972 16.13136426 11.8137933 14.12941517 9.80664062 12.12890625 C8.5434761 10.86016575 7.28107968 9.59065995 6.01953125 8.3203125 C5.41647659 7.71816925 4.81342194 7.116026 4.1920929 6.49563599 C0 2.23100864 0 2.23100864 0 0 Z " fill="#040505" transform="translate(351,670)"/>
<path d="M0 0 C10.33333333 10.33333333 20.66666667 20.66666667 31 31 C27.12415585 31 26.05481958 29.42670599 23.3910675 26.8079071 C22.79408554 26.20485245 22.19710358 25.60179779 21.58203125 24.98046875 C20.96478683 24.36609451 20.34754242 23.75172028 19.71159363 23.11872864 C18.407632 21.81680995 17.10745711 20.51108926 15.81079102 19.2019043 C13.82043221 17.19549618 11.81460873 15.20556411 9.80664062 13.21679688 C8.54330778 11.95148164 7.28090585 10.68523613 6.01953125 9.41796875 C5.41647659 8.82098679 4.81342194 8.22400482 4.1920929 7.6089325 C0 3.3448799 0 3.3448799 0 0 Z " fill="#010202" transform="translate(474,545)"/>
<path d="M0 0 C4.24507802 0.4952591 6.76022815 3.13998382 9.75 5.9375 C10.25660156 6.39318359 10.76320313 6.84886719 11.28515625 7.31835938 C12.56785768 8.49906703 13.78935193 9.74551812 15 11 C15 11.66 15 12.32 15 13 C15.66 13 16.32 13 17 13 C17 13.66 17 14.32 17 15 C17.78375 15.20625 18.5675 15.4125 19.375 15.625 C22 17 22 17 23.3125 20.125 C23.6528125 21.548125 23.6528125 21.548125 24 23 C18.79451386 18.65196748 13.95102274 14.07514044 9.1875 9.25 C8.52041016 8.57839844 7.85332031 7.90679687 7.16601562 7.21484375 C5.9404809 5.98065237 4.71598374 4.74542911 3.49291992 3.50878906 C2.33215099 2.33568162 1.16695449 1.16695449 0 0 Z " fill="#060708" transform="translate(330,369)"/>
<path d="M0 0 C-1.44572845 3.51435055 -3.21048126 5.19921494 -6.25 7.4375 C-7.4565625 8.34435547 -7.4565625 8.34435547 -8.6875 9.26953125 C-9.450625 9.84058594 -10.21375 10.41164063 -11 11 C-14.91768167 14.10441293 -18.51987729 17.41752074 -22 21 C-22.66 20.67 -23.32 20.34 -24 20 C-21.21910062 16.29430504 -18.3128594 13.43919961 -14.6875 10.5625 C-11.37533774 7.9145414 -8.11052965 5.2505641 -4.9375 2.4375 C-2 0 -2 0 0 0 Z " fill="#0A0B0B" transform="translate(576,509)"/>
<path d="M0 0 C4.92479571 2.30260136 9.08199909 5.59292957 13.4375 8.8125 C14.28376953 9.42931641 15.13003906 10.04613281 16.00195312 10.68164062 C20.33493932 13.87454588 24.33717201 17.05136614 28 21 C22.98350855 19.3994074 19.2481754 16.40981666 15.125 13.25 C14.44308594 12.73695313 13.76117188 12.22390625 13.05859375 11.6953125 C4.02642161 4.84806581 4.02642161 4.84806581 0 1 C0 0.67 0 0.34 0 0 Z " fill="#0B0B0C" transform="translate(476,668)"/>
<path d="M0 0 C3.02812652 1.38963418 5.44138289 3.0290399 8.00390625 5.15234375 C8.74447266 5.76400391 9.48503906 6.37566406 10.24804688 7.00585938 C11.01181641 7.64330078 11.77558594 8.28074219 12.5625 8.9375 C13.33013672 9.57107422 14.09777344 10.20464844 14.88867188 10.85742188 C18.04461862 13.47407868 21.14057435 16.0573386 24 19 C20.42808296 19 20.02077328 18.41190492 17.5 16.0625 C15.19604302 13.92527675 14.05243655 13.01747885 11 12 C9.31066078 10.3563186 7.64740076 8.6857124 6 7 C4.90473419 6.0933059 3.80060214 5.19720618 2.6875 4.3125 C1.800625 3.549375 0.91375 2.78625 0 2 C0 1.34 0 0.68 0 0 Z " fill="#0B0C0C" transform="translate(415,687)"/>
<path d="M0 0 C3.44401787 1.62084653 5.60671518 3.42536245 8.25 6.1875 C11.78660662 9.81150217 15.42878606 13.19573953 19.26953125 16.4921875 C21.27468378 18.23934072 23.15843313 20.08170118 25 22 C21.3716158 22 20.97316098 21.38511274 18.41796875 18.96484375 C17.73283203 18.31966797 17.04769531 17.67449219 16.34179688 17.00976562 C15.63087891 16.32591797 14.91996094 15.64207031 14.1875 14.9375 C13.48818359 14.28072266 12.78886719 13.62394531 12.06835938 12.94726562 C7.74792372 8.84507462 3.80026045 4.58775556 0 0 Z " fill="#080909" transform="translate(438,634)"/>
<path d="M0 0 C-1.09139623 3.27418868 -1.72910317 3.83548146 -4.3125 5.9375 C-10.22373053 10.93351269 -15.57276998 16.49136153 -21 22 C-21.66 21.67 -22.32 21.34 -23 21 C-19.89732556 17.09949499 -16.9122222 14.10971508 -13 11 C-12.071875 9.824375 -12.071875 9.824375 -11.125 8.625 C-4.14285714 0 -4.14285714 0 0 0 Z " fill="#070808" transform="translate(600,410)"/>
<path d="M0 0 C0.99 0.33 1.98 0.66 3 1 C2.52691406 1.40089844 2.05382812 1.80179687 1.56640625 2.21484375 C-3.88343592 6.89979579 -8.96329004 11.87711059 -14 17 C-15.01964701 18.02201828 -16.04022379 19.04311158 -17.0625 20.0625 C-17.701875 20.701875 -18.34125 21.34125 -19 22 C-19 19 -19 19 -17.25585938 16.9152832 C-16.45986328 16.13499756 -15.66386719 15.35471191 -14.84375 14.55078125 C-13.55791016 13.27944336 -13.55791016 13.27944336 -12.24609375 11.98242188 C-10.88677734 10.66081055 -10.88677734 10.66081055 -9.5 9.3125 C-8.59378906 8.41982422 -7.68757813 7.52714844 -6.75390625 6.60742188 C-4.50914832 4.39810749 -2.25770002 2.19607467 0 0 Z " fill="#040405" transform="translate(356,421)"/>
<path d="M0 0 C5.37490588 0.96056336 9.05248996 4.58913667 13.25 7.875 C14.09046875 8.51308594 14.9309375 9.15117188 15.796875 9.80859375 C16.5909375 10.42605469 17.385 11.04351563 18.203125 11.6796875 C18.93176758 12.24413574 19.66041016 12.80858398 20.41113281 13.39013672 C22 15 22 15 22 18 C19.07975014 15.75462042 16.16445641 13.50289269 13.25 11.25 C12.425 10.61578125 11.6 9.9815625 10.75 9.328125 C9.95078125 8.709375 9.1515625 8.090625 8.328125 7.453125 C7.5949707 6.88754883 6.86181641 6.32197266 6.10644531 5.73925781 C3.93069917 3.94277943 1.96286131 2.02492807 0 0 Z " fill="#0A0A0B" transform="translate(492,639)"/>
<path d="M0 0 C0 3.99833488 -1.35814212 4.81158018 -4.0625 7.6875 C-4.8771875 8.56535156 -5.691875 9.44320313 -6.53125 10.34765625 C-7.3459375 11.22292969 -8.160625 12.09820312 -9 13 C-10.3607922 14.53582163 -11.71578007 16.07682401 -13.0625 17.625 C-13.63097656 18.27726562 -14.19945312 18.92953125 -14.78515625 19.6015625 C-15.18605469 20.06304687 -15.58695312 20.52453125 -16 21 C-16.66 20.67 -17.32 20.34 -18 20 C-17.35933594 19.29875 -16.71867187 18.5975 -16.05859375 17.875 C-11.41351272 12.77994838 -6.79521326 7.66977529 -2.27734375 2.4609375 C-1.54167701 1.61953273 -0.79030613 0.79030613 0 0 Z " fill="#0B0B0B" transform="translate(340,487)"/>
<path d="M0 0 C0 4.19790427 -2.36477312 5.88714759 -5.125 8.75 C-6.13495103 9.82212934 -7.14407052 10.89504263 -8.15234375 11.96875 C-8.64202637 12.48695313 -9.13170898 13.00515625 -9.63623047 13.5390625 C-12.19077567 16.2756179 -14.59123254 19.13551978 -17 22 C-17.66 21.67 -18.32 21.34 -19 21 C-18.35933594 20.29875 -17.71867187 19.5975 -17.05859375 18.875 C-12.44432659 13.8137472 -7.85559914 8.7392865 -3.375 3.55859375 C-2.2934584 2.33264177 -1.156004 1.156004 0 0 Z " fill="#080909" transform="translate(291,408)"/>
<path d="M0 0 C8.08884116 3.38124769 14.32189217 11.82690133 19 19 C16 19 16 19 14.62133789 17.79418945 C14.15977295 17.23948975 13.69820801 16.68479004 13.22265625 16.11328125 C12.45211914 15.1996582 12.45211914 15.1996582 11.66601562 14.26757812 C11.13685547 13.62240234 10.60769531 12.97722656 10.0625 12.3125 C9.53720703 11.68666016 9.01191406 11.06082031 8.47070312 10.41601562 C5.59836194 6.9828669 2.78241238 3.50651006 0 0 Z " fill="#0C0C0D" transform="translate(446,311)"/>
<path d="M0 0 C4.07376031 1.61010527 6.76507069 4.53822271 9.75 7.625 C10.25660156 8.140625 10.76320313 8.65625 11.28515625 9.1875 C12.52803902 10.45383339 13.76465276 11.7263144 15 13 C14.67 13.99 14.34 14.98 14 16 C11.65861457 13.71643754 9.32833018 11.42186626 7 9.125 C5.99839844 8.14853516 5.99839844 8.14853516 4.9765625 7.15234375 C4.34492188 6.52714844 3.71328125 5.90195312 3.0625 5.2578125 C2.47597656 4.6817627 1.88945312 4.10571289 1.28515625 3.51220703 C0 2 0 2 0 0 Z " fill="#242626" transform="translate(468,255)"/>
<path d="M0 0 C3.89061146 3.83286584 7.62055805 7.78859729 11.3125 11.8125 C12.13717773 12.7087207 12.13717773 12.7087207 12.97851562 13.62304688 C14.31996978 15.08114922 15.66012065 16.5404504 17 18 C16.34 18.66 15.68 19.32 15 20 C0 3.89320388 0 3.89320388 0 0 Z " fill="#0B0C0D" transform="translate(335,651)"/>
<path d="M0 0 C0 4.72673455 -3.03365636 7.51763153 -5.8125 11.1875 C-6.63331055 12.31188477 -6.63331055 12.31188477 -7.47070312 13.45898438 C-8.00244141 14.16732422 -8.53417969 14.87566406 -9.08203125 15.60546875 C-9.56905518 16.25668701 -10.0560791 16.90790527 -10.55786133 17.57885742 C-12 19 -12 19 -15 19 C-13.43905326 16.9571299 -11.87629071 14.91569142 -10.3125 12.875 C-9.87744141 12.30523437 -9.44238281 11.73546875 -8.99414062 11.1484375 C-6.0834415 7.35374828 -3.08351746 3.65577385 0 0 Z " fill="#0D0E0E" transform="translate(252,454)"/>
<path d="M0 0 C0.33 0.66 0.66 1.32 1 2 C-2.72346836 6.42094803 -6.29521038 10.57833482 -11 14 C-10.42666443 10.14542086 -8.65508307 8.14887027 -6.0625 5.3125 C-5.35222656 4.52488281 -4.64195312 3.73726563 -3.91015625 2.92578125 C-2 1 -2 1 0 0 Z " fill="#0B0D0E" transform="translate(270,383)"/>
<path d="M0 0 C3.15204981 1.39347376 5.26171773 3.02485079 7.671875 5.4765625 C8.33574219 6.146875 8.99960937 6.8171875 9.68359375 7.5078125 C10.36550781 8.20648438 11.04742187 8.90515625 11.75 9.625 C12.44738281 10.33140625 13.14476562 11.0378125 13.86328125 11.765625 C15.58012488 13.50598703 17.29211832 15.25084981 19 17 C18.34 17.66 17.68 18.32 17 19 C16.443125 18.3709375 15.88625 17.741875 15.3125 17.09375 C10.82934158 12.06534259 6.27256862 7.18414542 1.43359375 2.49609375 C0 1 0 1 0 0 Z " fill="#030405" transform="translate(366,355)"/>
<path d="M0 0 C0 3 0 3 -1.50390625 4.8671875 C-5.7763465 9.03423548 -10.0318744 12.68791627 -15 16 C-14.69935312 12.85752425 -13.95255425 11.95541335 -11.6015625 9.74609375 C-10.61929688 8.98425781 -9.63703125 8.22242188 -8.625 7.4375 C-4.11659188 3.9371017 -4.11659188 3.9371017 0 0 Z " fill="#0A0B0B" transform="translate(663,586)"/>
<path d="M0 0 C0.33 0.99 0.66 1.98 1 3 C-0.07983398 4.80932617 -0.07983398 4.80932617 -1.74609375 6.79296875 C-2.33583984 7.50517578 -2.92558594 8.21738281 -3.53320312 8.95117188 C-4.16162109 9.68916016 -4.79003906 10.42714844 -5.4375 11.1875 C-6.06205078 11.93708984 -6.68660156 12.68667969 -7.33007812 13.45898438 C-8.87775294 15.31383129 -10.43452276 17.16017706 -12 19 C-12.66 18.67 -13.32 18.34 -14 18 C-13.49210937 17.3709375 -12.98421875 16.741875 -12.4609375 16.09375 C-8.20485579 10.80154353 -4.0307383 5.46592542 0 0 Z " fill="#090A0B" transform="translate(316,514)"/>
<path d="M0 0 C0.66 0.33 1.32 0.66 2 1 C-1.42166518 5.70478962 -5.57905197 9.27653164 -10 13 C-10 10 -10 10 -7.8125 7.51953125 C-6.884375 6.62621094 -5.95625 5.73289062 -5 4.8125 C-4.071875 3.91144531 -3.14375 3.01039063 -2.1875 2.08203125 C-1.1046875 1.05142578 -1.1046875 1.05142578 0 0 Z " fill="#282929" transform="translate(420,482)"/>
<path d="M0 0 C0 3 0 3 -1.14575195 4.48632812 C-1.67128662 4.99615234 -2.19682129 5.50597656 -2.73828125 6.03125 C-3.31126953 6.59457031 -3.88425781 7.15789062 -4.47460938 7.73828125 C-5.08111328 8.31964844 -5.68761719 8.90101563 -6.3125 9.5 C-7.20485352 10.37205078 -7.20485352 10.37205078 -8.11523438 11.26171875 C-9.22880836 12.34916418 -10.34543545 13.43349817 -11.46606445 14.51367188 C-12.99341961 15.99362384 -14.49997913 17.49239617 -16 19 C-16 16 -16 16 -14.53125 14.19067383 C-13.8609375 13.53607178 -13.190625 12.88146973 -12.5 12.20703125 C-11.778125 11.49482422 -11.05625 10.78261719 -10.3125 10.04882812 C-9.549375 9.31083984 -8.78625 8.57285156 -8 7.8125 C-6.8553125 6.68811523 -6.8553125 6.68811523 -5.6875 5.54101562 C-3.79819161 3.68713177 -1.90224794 1.84058931 0 0 Z " fill="#070808" transform="translate(689,443)"/>
<path d="M0 0 C0.66 0.33 1.32 0.66 2 1 C0.37660195 2.70884005 -1.29319053 4.37446717 -3 6 C-3.66 6 -4.32 6 -5 6 C-5 6.66 -5 7.32 -5 8 C-10.14209827 12.09030544 -10.14209827 12.09030544 -13.375 11.75 C-13.91125 11.5025 -14.4475 11.255 -15 11 C-15 10.01 -15 9.02 -15 8 C-13.515 8.99 -13.515 8.99 -12 10 C-8.04 6.7 -4.08 3.4 0 0 Z " fill="#070809" transform="translate(427,397)"/>
<path d="M0 0 C3.53191322 3.43153914 6.7137505 6.97375062 9.8125 10.8125 C10.60269531 11.78832031 11.39289063 12.76414062 12.20703125 13.76953125 C13.09455078 14.87361328 13.09455078 14.87361328 14 16 C13.34 16.66 12.68 17.32 12 18 C10.20697179 15.73023018 8.41553207 13.45923756 6.625 11.1875 C5.86316406 10.22360352 5.86316406 10.22360352 5.0859375 9.24023438 C4.59609375 8.61826172 4.10625 7.99628906 3.6015625 7.35546875 C3.15119629 6.78465576 2.70083008 6.21384277 2.23681641 5.62573242 C1.09736659 4.12798345 0.04389771 2.56584656 -1 1 C-0.67 0.67 -0.34 0.34 0 0 Z " fill="#0C0D0D" transform="translate(439,350)"/>
<path d="M0 0 C5.19210472 3.80304814 10.15609762 7.76158542 15 12 C14.01 12.33 13.02 12.66 12 13 C11.236875 12.195625 10.47375 11.39125 9.6875 10.5625 C7.20569102 7.83200976 7.20569102 7.83200976 4 7 C3.34 6.01 2.68 5.02 2 4 C1.01 3.67 0.02 3.34 -1 3 C-0.67 2.01 -0.34 1.02 0 0 Z " fill="#0C0D0E" transform="translate(388,253)"/>
<path d="M0 0 C3.68069887 1.53643852 5.98775204 3.78150945 8.75 6.625 C9.54921875 7.44226563 10.3484375 8.25953125 11.171875 9.1015625 C12.07679688 10.04128906 12.07679688 10.04128906 13 11 C12.01 11.33 11.02 11.66 10 12 C8.32737283 10.38113585 6.66204463 8.7547271 5 7.125 C4.071875 6.22007812 3.14375 5.31515625 2.1875 4.3828125 C0 2 0 2 0 0 Z " fill="#242525" transform="translate(377,651)"/>
<path d="M0 0 C4.20953787 1.7296616 7.35143576 4.68206745 10.75 7.625 C11.35199219 8.140625 11.95398438 8.65625 12.57421875 9.1875 C14.05260866 10.45469135 15.52673171 11.72685775 17 13 C16.01 13.33 15.02 13.66 14 14 C11.66267107 11.85848453 9.33082607 9.71108967 7 7.5625 C6.33226562 6.95083984 5.66453125 6.33917969 4.9765625 5.70898438 C4.34492188 5.12568359 3.71328125 4.54238281 3.0625 3.94140625 C2.47597656 3.40201416 1.88945312 2.86262207 1.28515625 2.30688477 C0 1 0 1 0 0 Z " fill="#0C0C0D" transform="translate(474,623)"/>
<path d="M0 0 C0.99 0.33 1.98 0.66 3 1 C2.36191406 1.48210937 1.72382813 1.96421875 1.06640625 2.4609375 C0.24011719 3.09257812 -0.58617187 3.72421875 -1.4375 4.375 C-2.26121094 5.00148437 -3.08492188 5.62796875 -3.93359375 6.2734375 C-6.08528092 7.83753904 -6.08528092 7.83753904 -7 10 C-9.93704456 12.0095568 -11.39222485 13 -15 13 C-11.82878531 9.61737099 -8.43806461 6.59422051 -4.875 3.625 C-4.02679688 2.91601562 -3.17859375 2.20703125 -2.3046875 1.4765625 C-1.54414063 0.98929688 -0.78359375 0.50203125 0 0 Z " fill="#08090A" transform="translate(278,246)"/>
<path d="M0 0 C5.57142857 5.14285714 5.57142857 5.14285714 6 9 C6.66 9 7.32 9 8 9 C9.1577506 12.47325181 9.06866652 15.36067448 9 19 C6.74574638 15.61861957 5.50978279 12.26310117 4.09765625 8.47265625 C2.99820524 5.995957 1.62855754 4.14821122 0 2 C0 1.34 0 0.68 0 0 Z " fill="#060607" transform="translate(759,727)"/>
<path d="M0 0 C-1.42353524 3.33136597 -3.1335313 5.27664757 -5.875 7.625 C-6.55304687 8.21539062 -7.23109375 8.80578125 -7.9296875 9.4140625 C-9.88666469 10.91318087 -11.76048537 11.98569068 -14 13 C-4.90322581 0 -4.90322581 0 0 0 Z " fill="#0C0D0E" transform="translate(519,363)"/>
<path d="M0 0 C0.74765625 0.48210937 1.4953125 0.96421875 2.265625 1.4609375 C3.74289062 2.40839844 3.74289062 2.40839844 5.25 3.375 C6.22453125 4.00148438 7.1990625 4.62796875 8.203125 5.2734375 C10.43521615 6.65134852 12.63087422 7.88312642 15 9 C14.67 9.99 14.34 10.98 14 12 C11.66083869 10.38287572 9.32878299 8.75694638 7 7.125 C6.33226562 6.66480469 5.66453125 6.20460938 4.9765625 5.73046875 C3.28140649 4.53694054 1.6362422 3.27309661 0 2 C0 1.34 0 0.68 0 0 Z " fill="#090A0B" transform="translate(289,335)"/>
<path d="M0 0 C4.15151338 1.44202476 7.29978445 3.5010438 10.8125 6.125 C11.78832031 6.84945312 12.76414062 7.57390625 13.76953125 8.3203125 C14.50558594 8.87460937 15.24164062 9.42890625 16 10 C15.34 10.66 14.68 11.32 14 12 C11.85050462 10.37965717 9.7053859 8.75404206 7.5625 7.125 C6.95083984 6.66480469 6.33917969 6.20460938 5.70898438 5.73046875 C1.11328125 2.2265625 1.11328125 2.2265625 0 0 Z " fill="#0C0C0D" transform="translate(558,579)"/>
<path d="M0 0 C0.66 0.33 1.32 0.66 2 1 C-2.9235507 6.39495449 -7.26391254 10.11310537 -14 13 C-14 12.34 -14 11.68 -14 11 C-12.27852222 9.62340232 -10.49622345 8.32227237 -8.6875 7.0625 C-4.07378496 3.84670321 -4.07378496 3.84670321 0 0 Z " fill="#070708" transform="translate(760,775)"/>
<path d="M0 0 C4.60415193 3.34847413 8.6918413 7.3571375 12 12 C12 12.99 12 13.98 12 15 C8.94433539 12.03693129 6.02864172 8.98279839 3.1875 5.8125 C2.58292969 5.13832031 1.97835937 4.46414063 1.35546875 3.76953125 C0 2 0 2 0 0 Z " fill="#0C0D0D" transform="translate(227,647)"/>
<path d="M0 0 C0 3 0 3 -1.828125 4.90234375 C-2.62734375 5.57394531 -3.4265625 6.24554688 -4.25 6.9375 C-7.29715156 9.52160402 -10.20926993 12.13886161 -13 15 C-12.42179137 11.5307482 -11.27319323 9.91348917 -8.75 7.5 C-8.12480469 6.90058594 -7.49960937 6.30117188 -6.85546875 5.68359375 C-4.64867463 3.68121846 -2.37514638 1.79935332 0 0 Z " fill="#030405" transform="translate(290,362)"/>
<path d="M0 0 C4.95258714 3.77339973 8.43679155 7.90789714 12 13 C11.01 13 10.02 13 9 13 C6.73828125 10.6640625 6.73828125 10.6640625 4.3125 7.625 C3.10013672 6.12839844 3.10013672 6.12839844 1.86328125 4.6015625 C0 2 0 2 0 0 Z " fill="#0A0A0B" transform="translate(352,623)"/>
<path d="M0 0 C0.66 0.33 1.32 0.66 2 1 C0.86449129 4.40652614 -0.49523872 5.49523872 -3 8 C-4.04349839 9.63978318 -5.05607981 11.30094366 -6 13 C-6.66 12.34 -7.32 11.68 -8 11 C-5.36 7.37 -2.72 3.74 0 0 Z " fill="#070909" transform="translate(213,453)"/>
<path d="M0 0 C0.99 0.33 1.98 0.66 3 1 C-0.85873847 4.30749011 -4.72545575 7.2520787 -9 10 C-9 9.01 -9 8.02 -9 7 C-7.13671875 5.140625 -7.13671875 5.140625 -4.6875 3.25 C-3.88699219 2.61578125 -3.08648437 1.9815625 -2.26171875 1.328125 C-1.51535156 0.88984375 -0.76898438 0.4515625 0 0 Z " fill="#0D0E0F" transform="translate(438,388)"/>
<path d="M0 0 C0.33 0.99 0.66 1.98 1 3 C-0.36125 4.11375 -0.36125 4.11375 -1.75 5.25 C-4.3069423 7.37674584 -6.69110193 9.60229816 -9 12 C-9.99 11.67 -10.98 11.34 -12 11 C-11.21753906 10.37351562 -10.43507813 9.74703125 -9.62890625 9.1015625 C-8.11103516 7.87566406 -8.11103516 7.87566406 -6.5625 6.625 C-5.55316406 5.81289063 -4.54382813 5.00078125 -3.50390625 4.1640625 C-0.96471245 2.24965659 -0.96471245 2.24965659 0 0 Z " fill="#0A0B0C" transform="translate(456,372)"/>
<path d="M0 0 C3.93472548 1.31157516 5.12683424 3.33383447 7.6875 6.5625 C8.89986328 8.08037109 8.89986328 8.08037109 10.13671875 9.62890625 C10.75160156 10.41136719 11.36648438 11.19382812 12 12 C11.34 12.66 10.68 13.32 10 14 C8.51551984 12.23361856 7.03758035 10.46173862 5.5625 8.6875 C4.73878906 7.70136719 3.91507813 6.71523438 3.06640625 5.69921875 C1 3 1 3 0 0 Z " fill="#0C0E0E" transform="translate(628,300)"/>
<path d="M0 0 C4.73041839 2.50433915 8.48825251 4.84975296 12 9 C12 9.99 12 10.98 12 12 C10.3678622 10.75933437 8.74452679 9.50708312 7.125 8.25 C6.22007812 7.55390625 5.31515625 6.8578125 4.3828125 6.140625 C2.14952853 4.13433055 1.08041718 2.75692659 0 0 Z " fill="#08090A" transform="translate(383,701)"/>
<path d="M0 0 C3.38746512 1.12915504 4.37451366 2.22743073 6.6875 4.875 C7.31011719 5.57367187 7.93273437 6.27234375 8.57421875 6.9921875 C10 9 10 9 10 12 C8.2925002 10.71937515 6.62626404 9.38232443 5 8 C5 7.34 5 6.68 5 6 C4.01 5.67 3.02 5.34 2 5 C0.8125 2.4375 0.8125 2.4375 0 0 Z " fill="#0C0D0E" transform="translate(364,637)"/>
<path d="M0 0 C3.83663072 1.34929464 6.65172569 3.07751025 9.8125 5.625 C10.99779297 6.57246094 10.99779297 6.57246094 12.20703125 7.5390625 C12.79871094 8.02117188 13.39039063 8.50328125 14 9 C13.67 9.66 13.34 10.32 13 11 C11.01712504 9.54648985 9.03870613 8.08752713 7.0625 6.625 C6.49853516 6.2125 5.93457031 5.8 5.35351562 5.375 C1.11328125 2.2265625 1.11328125 2.2265625 0 0 Z " fill="#090909" transform="translate(538,605)"/>
<path d="M0 0 C0.33 0.99 0.66 1.98 1 3 C0.44570313 3.47050781 -0.10859375 3.94101562 -0.6796875 4.42578125 C-1.40414062 5.04839844 -2.12859375 5.67101562 -2.875 6.3125 C-3.59429688 6.92738281 -4.31359375 7.54226563 -5.0546875 8.17578125 C-7.19179331 10.0412324 -7.19179331 10.0412324 -9 13 C-9.66 12.67 -10.32 12.34 -11 12 C-11 11.34 -11 10.68 -11 10 C-9.35546875 8.37890625 -9.35546875 8.37890625 -7.1875 6.5625 C-4.68897282 4.45536324 -2.2757944 2.34758602 0 0 Z " fill="#070809" transform="translate(690,517)"/>
<path d="M0 0 C0 0.66 0 1.32 0 2 C-1.78104718 3.60178593 -3.62537278 5.13381926 -5.5 6.625 C-7.03140625 7.85089844 -7.03140625 7.85089844 -8.59375 9.1015625 C-9.3878125 9.72804688 -10.181875 10.35453125 -11 11 C-11.66 10.34 -12.32 9.68 -13 9 C-8.25 5 -8.25 5 -6 5 C-5.67 4.01 -5.34 3.02 -5 2 C-2 0 -2 0 0 0 Z " fill="#0C0D0E" transform="translate(486,393)"/>
<path d="M0 0 C5.40489519 1.52012677 8.98492628 5.27385218 13 9 C12.34 9.66 11.68 10.32 11 11 C9.16365304 9.35742342 7.3308593 7.71117305 5.5 6.0625 C4.97535156 5.59392578 4.45070313 5.12535156 3.91015625 4.64257812 C2.5878256 3.44904592 1.29166061 2.22665821 0 1 C0 0.67 0 0.34 0 0 Z " fill="#08090A" transform="translate(371,282)"/>
<path d="M0 0 C3.52238047 1.56367357 6.27123994 3.69495889 9.25 6.125 C10.14203125 6.84945313 11.0340625 7.57390625 11.953125 8.3203125 C12.62859375 8.87460937 13.3040625 9.42890625 14 10 C13.34 10.66 12.68 11.32 12 12 C9.99698881 10.19073245 7.99751914 8.377813 6 6.5625 C5.42765625 6.04623047 4.8553125 5.52996094 4.265625 4.99804688 C2.82480421 3.6858708 1.41014216 2.34509096 0 1 C0 0.67 0 0.34 0 0 Z " fill="#0C0C0D" transform="translate(603,277)"/>
<path d="M0 0 C3.47775179 1.51553404 5.9557984 3.5773456 8.75 6.125 C9.94882812 7.21167969 9.94882812 7.21167969 11.171875 8.3203125 C11.77515625 8.87460938 12.3784375 9.42890625 13 10 C12.34 10.66 11.68 11.32 11 12 C10.37351562 11.36191406 9.74703125 10.72382813 9.1015625 10.06640625 C8.28429687 9.24011719 7.46703125 8.41382813 6.625 7.5625 C5.81289063 6.73878906 5.00078125 5.91507813 4.1640625 5.06640625 C2.17651485 2.96565328 2.17651485 2.96565328 0 2 C0 1.34 0 0.68 0 0 Z " fill="#090A0A" transform="translate(455,243)"/>
<path d="M0 0 C3.2826932 1.49076434 5.93077441 3.38620321 8.75 5.625 C9.94882812 6.57246094 9.94882812 6.57246094 11.171875 7.5390625 C11.77515625 8.02117187 12.3784375 8.50328125 13 9 C12.34 9.66 11.68 10.32 11 11 C9.16365304 9.35742342 7.3308593 7.71117305 5.5 6.0625 C4.97535156 5.59392578 4.45070313 5.12535156 3.91015625 4.64257812 C2.5878256 3.44904592 1.29166061 2.22665821 0 1 C0 0.67 0 0.34 0 0 Z " fill="#0C0D0D" transform="translate(441,231)"/>
<path d="M0 0 C3.47775179 1.51553404 5.9557984 3.5773456 8.75 6.125 C9.94882812 7.21167969 9.94882812 7.21167969 11.171875 8.3203125 C11.77515625 8.87460937 12.3784375 9.42890625 13 10 C12.34 10.66 11.68 11.32 11 12 C10.37351562 11.36191406 9.74703125 10.72382812 9.1015625 10.06640625 C8.28429687 9.24011719 7.46703125 8.41382813 6.625 7.5625 C5.81289063 6.73878906 5.00078125 5.91507813 4.1640625 5.06640625 C2.17651485 2.96565328 2.17651485 2.96565328 0 2 C0 1.34 0 0.68 0 0 Z " fill="#0C0C0D" transform="translate(394,668)"/>
<path d="M0 0 C-1.12530428 3.37591285 -2.16053617 4.28446799 -4.8125 6.5625 C-5.49957031 7.16191406 -6.18664062 7.76132812 -6.89453125 8.37890625 C-8.86555845 9.89648749 -10.73964261 10.97902958 -13 12 C-2.93659942 0 -2.93659942 0 0 0 Z " fill="#0A0A0B" transform="translate(568,441)"/>
<path d="M0 0 C1.79887229 0.90244429 3.58890815 1.82251786 5.375 2.75 C6.87160156 3.51570313 6.87160156 3.51570313 8.3984375 4.296875 C11.06579125 6.04307055 11.93652905 7.05303231 13 10 C11.01464194 8.90700499 9.03686057 7.80023764 7.0625 6.6875 C5.96035156 6.07261719 4.85820312 5.45773437 3.72265625 4.82421875 C1 3 1 3 0 0 Z " fill="#060708" transform="translate(297,300)"/>
<path d="M0 0 C3.81684226 1.55500981 6.19195732 4.03595495 9 7 C8.67 7.99 8.34 8.98 8 10 C6.66070495 8.71451591 5.32871357 7.42141845 4 6.125 C2.88625 5.04605469 2.88625 5.04605469 1.75 3.9453125 C0 2 0 2 0 0 Z " fill="#272829" transform="translate(617,289)"/>
<path d="M0 0 C4.32239956 3.34003602 7.17477391 6.32751069 10 11 C9.01 11 8.02 11 7 11 C7 10.34 7 9.68 7 9 C6.34 9 5.68 9 5 9 C3.7109375 7.5390625 3.7109375 7.5390625 2.375 5.625 C1.92898437 4.99851562 1.48296875 4.37203125 1.0234375 3.7265625 C0 2 0 2 0 0 Z " fill="#0B0C0C" transform="translate(251,621)"/>
<path d="M0 0 C0.66 0 1.32 0 2 0 C0.44298069 4.67105792 -2.08447373 8.08705685 -5 12 C-5.66 11.67 -6.32 11.34 -7 11 C-5.88368586 9.16136495 -4.75670373 7.32920277 -3.625 5.5 C-2.99851563 4.4790625 -2.37203125 3.458125 -1.7265625 2.40625 C-1.15679687 1.6121875 -0.58703125 0.818125 0 0 Z " fill="#060708" transform="translate(255,542)"/>
<path d="M0 0 C0.66 0.33 1.32 0.66 2 1 C0.75803878 2.15454162 -0.49392845 3.29832562 -1.75 4.4375 C-2.79414062 5.39462891 -2.79414062 5.39462891 -3.859375 6.37109375 C-5.98792725 7.99081325 -7.39023405 8.58267256 -10 9 C-10 8.34 -10 7.68 -10 7 C-7.8125 5.2734375 -7.8125 5.2734375 -5 3.375 C-4.071875 2.74335937 -3.14375 2.11171875 -2.1875 1.4609375 C-1.1046875 0.73777344 -1.1046875 0.73777344 0 0 Z " fill="#090A0A" transform="translate(543,535)"/>
<path d="M0 0 C-1.12915504 3.38746512 -2.22743073 4.37451366 -4.875 6.6875 C-5.57367187 7.31011719 -6.27234375 7.93273437 -6.9921875 8.57421875 C-9 10 -9 10 -12 10 C-10.33333333 8.33333333 -8.66666667 6.66666667 -7 5 C-6.113125 4.071875 -5.22625 3.14375 -4.3125 2.1875 C-2 0 -2 0 0 0 Z " fill="#0A0B0C" transform="translate(632,502)"/>
<path d="M0 0 C0.66 0.33 1.32 0.66 2 1 C0.90344712 2.31886772 -0.20253423 3.62990057 -1.3125 4.9375 C-1.92738281 5.66839844 -2.54226563 6.39929688 -3.17578125 7.15234375 C-5 9 -5 9 -8 10 C-8 7 -8 7 -6.25 5.17578125 C-5.5075 4.56089844 -4.765 3.94601562 -4 3.3125 C-3.2575 2.68988281 -2.515 2.06726563 -1.75 1.42578125 C-1.1725 0.95527344 -0.595 0.48476563 0 0 Z " fill="#0A0B0C" transform="translate(529,431)"/>
<path d="M0 0 C0.66 0.33 1.32 0.66 2 1 C1.34 1.66 0.68 2.32 0 3 C-0.433125 3.928125 -0.433125 3.928125 -0.875 4.875 C-2.21259274 7.40156407 -3.92063932 9.05926336 -6 11 C-6.66 10.67 -7.32 10.34 -8 10 C-5.36 6.7 -2.72 3.4 0 0 Z " fill="#060708" transform="translate(233,426)"/>
<path d="M0 0 C3.66786393 1.50349377 5.68910393 3.63728792 8.25 6.625 C8.95640625 7.44226563 9.6628125 8.25953125 10.390625 9.1015625 C10.92171875 9.72804688 11.4528125 10.35453125 12 11 C9 11 9 11 6.73828125 8.84765625 C5.93777344 7.92855469 5.13726562 7.00945312 4.3125 6.0625 C3.50425781 5.14597656 2.69601562 4.22945313 1.86328125 3.28515625 C0 1 0 1 0 0 Z " fill="#090A0A" transform="translate(386,376)"/>
<path d="M0 0 C0.99 0.33 1.98 0.66 3 1 C-0.63 4.3 -4.26 7.6 -8 11 C-8.66 10.34 -9.32 9.68 -10 9 C-9.44570313 8.51789063 -8.89140625 8.03578125 -8.3203125 7.5390625 C-7.59585937 6.90742188 -6.87140625 6.27578125 -6.125 5.625 C-5.40570313 4.99851562 -4.68640625 4.37203125 -3.9453125 3.7265625 C-2.5923402 2.52573166 -1.2791655 1.2791655 0 0 Z " fill="#08080A" transform="translate(505,329)"/>
<path d="M0 0 C3.49844386 0.63389235 5.84086876 2.05177694 8.75 4.0625 C9.94882812 4.88427734 9.94882812 4.88427734 11.171875 5.72265625 C12.07679688 6.35494141 12.07679688 6.35494141 13 7 C10 8 10 8 8.17578125 7.22265625 C6.45052083 6.1484375 4.72526042 5.07421875 3 4 C3 3.34 3 2.68 3 2 C2.01 1.67 1.02 1.34 0 1 C0 0.67 0 0.34 0 0 Z " fill="#090A0B" transform="translate(440,708)"/>
<path d="M0 0 C0.99 0.33 1.98 0.66 3 1 C1.3790787 2.17232685 -0.24686833 3.3377077 -1.875 4.5 C-2.77992188 5.1496875 -3.68484375 5.799375 -4.6171875 6.46875 C-7 8 -7 8 -9 8 C-9 7.34 -9 6.68 -9 6 C-7.13671875 4.45703125 -7.13671875 4.45703125 -4.6875 2.8125 C-3.88699219 2.26207031 -3.08648438 1.71164062 -2.26171875 1.14453125 C-1.14216797 0.57798828 -1.14216797 0.57798828 0 0 Z " fill="#0A0B0B" transform="translate(597,667)"/>
<path d="M0 0 C0.33 0 0.66 0 1 0 C1.3125 2.29296875 1.3125 2.29296875 1 5 C-1.1875 6.80078125 -1.1875 6.80078125 -4 8.3125 C-4.928125 8.82425781 -5.85625 9.33601562 -6.8125 9.86328125 C-7.534375 10.23839844 -8.25625 10.61351562 -9 11 C-7.30343574 7.26127505 -5.38732271 5.3711259 -2 3 C-1.34 3 -0.68 3 0 3 C0 2.01 0 1.02 0 0 Z " fill="#090A0B" transform="translate(615,651)"/>
<path d="M0 0 C0.66 0 1.32 0 2 0 C1.39305845 3.15330554 0.3583335 5.18888867 -1.5625 7.75 C-2.24505859 8.67039062 -2.24505859 8.67039062 -2.94140625 9.609375 C-3.29074219 10.06828125 -3.64007813 10.5271875 -4 11 C-5 8 -5 8 -4.07421875 5.95703125 C-3.61660156 5.24933594 -3.15898437 4.54164063 -2.6875 3.8125 C-2.23761719 3.09707031 -1.78773438 2.38164063 -1.32421875 1.64453125 C-0.88722656 1.10183594 -0.45023437 0.55914063 0 0 Z " fill="#0A0B0C" transform="translate(330,589)"/>
<path d="M0 0 C0.66 0 1.32 0 2 0 C0.52307692 5.66153846 0.52307692 5.66153846 -2.125 7.375 C-3.053125 7.684375 -3.053125 7.684375 -4 8 C-4 8.66 -4 9.32 -4 10 C-4.66 9.67 -5.32 9.34 -6 9 C-5.05016642 7.49460339 -4.08988109 5.99579653 -3.125 4.5 C-2.59132813 3.6646875 -2.05765625 2.829375 -1.5078125 1.96875 C-0.76144531 0.99421875 -0.76144531 0.99421875 0 0 Z " fill="#080A0B" transform="translate(342,572)"/>
<path d="M0 0 C0.66 0.33 1.32 0.66 2 1 C-0.64 4.3 -3.28 7.6 -6 11 C-6.66 10.34 -7.32 9.68 -8 9 C-5.36 6.03 -2.72 3.06 0 0 Z " fill="#070809" transform="translate(302,480)"/>
<path d="M0 0 C0.33 0.66 0.66 1.32 1 2 C-2.3 4.31 -5.6 6.62 -9 9 C-9.66 8.67 -10.32 8.34 -11 8 C-7.72291137 4.32966073 -4.28477792 2.30718811 0 0 Z " fill="#090A0B" transform="translate(303,229)"/>
<path d="M0 0 C1.83863505 1.11631414 3.67079723 2.24329627 5.5 3.375 C6.5209375 4.00148438 7.541875 4.62796875 8.59375 5.2734375 C9.3878125 5.84320312 10.181875 6.41296875 11 7 C11 7.66 11 8.32 11 9 C6.39860359 7.51131293 3.49772906 5.25370145 0 2 C0 1.34 0 0.68 0 0 Z " fill="#0A0B0C" transform="translate(517,657)"/>
<path d="M0 0 C0.66 0.33 1.32 0.66 2 1 C0.19368173 5.15453202 -0.81810551 7.22010276 -5 9 C-4.3566152 7.686298 -3.71021785 6.37407102 -3.0625 5.0625 C-2.70285156 4.33160156 -2.34320313 3.60070312 -1.97265625 2.84765625 C-1 1 -1 1 0 0 Z " fill="#0A0B0C" transform="translate(247,555)"/>
<path d="M0 0 C0.66 0.33 1.32 0.66 2 1 C-0.97 3.64 -3.94 6.28 -7 9 C-7.66 8.34 -8.32 7.68 -9 7 C-6.03 4.69 -3.06 2.38 0 0 Z " fill="#0C0C0D" transform="translate(585,542)"/>
<path d="M0 0 C0 3 0 3 -1.75 5.04296875 C-2.4925 5.75066406 -3.235 6.45835937 -4 7.1875 C-4.7425 7.90292969 -5.485 8.61835938 -6.25 9.35546875 C-6.8275 9.89816406 -7.405 10.44085938 -8 11 C-8.33 10.01 -8.66 9.02 -9 8 C-6.03 5.36 -3.06 2.72 0 0 Z " fill="#07090A" transform="translate(332,447)"/>
<path d="M0 0 C0 3 0 3 -1.4609375 4.82421875 C-2.09257813 5.43910156 -2.72421875 6.05398438 -3.375 6.6875 C-4.00148438 7.31011719 -4.62796875 7.93273437 -5.2734375 8.57421875 C-7 10 -7 10 -9 10 C-7.61811547 6.78956118 -6.07578097 4.95063635 -3.375 2.75 C-2.74335937 2.22921875 -2.11171875 1.7084375 -1.4609375 1.171875 C-0.73777344 0.59179688 -0.73777344 0.59179688 0 0 Z " fill="#070809" transform="translate(661,426)"/>
<path d="M0 0 C0.99 0.33 1.98 0.66 3 1 C-0.96 4.465 -0.96 4.465 -5 8 C-5.99 7.34 -6.98 6.68 -8 6 C-6.7391988 4.96680187 -5.46596742 3.94875621 -4.1875 2.9375 C-3.47980469 2.36902344 -2.77210938 1.80054688 -2.04296875 1.21484375 C-1.36878906 0.81394531 -0.69460938 0.41304688 0 0 Z " fill="#191A1B" transform="translate(489,344)"/>
<path d="M0 0 C0.66 0.33 1.32 0.66 2 1 C1.34 2.32 0.68 3.64 0 5 C-0.66 5 -1.32 5 -2 5 C-2.66 6.65 -3.32 8.3 -4 10 C-4.66 9.34 -5.32 8.68 -6 8 C-4.02 5.36 -2.04 2.72 0 0 Z " fill="#050607" transform="translate(263,531)"/>
<path d="M0 0 C0.99 0.33 1.98 0.66 3 1 C0.69 3.64 -1.62 6.28 -4 9 C-4.33 8.01 -4.66 7.02 -5 6 C-3.59554165 3.7363436 -1.8032087 1.9791315 0 0 Z " fill="#080909" transform="translate(674,409)"/>
<path d="M0 0 C4.43458973 1.3937282 6.87378374 3.60582235 10 7 C6.433255 7 5.89456323 6.36308045 3.3125 4.0625 C2.68988281 3.51722656 2.06726563 2.97195313 1.42578125 2.41015625 C0.95527344 1.94480469 0.48476563 1.47945312 0 1 C0 0.67 0 0.34 0 0 Z " fill="#0B0B0C" transform="translate(268,689)"/>
<path d="M0 0 C1.12894876 0.93274109 2.25300876 1.87140122 3.375 2.8125 C4.00148438 3.33457031 4.62796875 3.85664062 5.2734375 4.39453125 C7 6 7 6 9 9 C6 9 6 9 4.39453125 7.5390625 C3.61142578 6.59160156 3.61142578 6.59160156 2.8125 5.625 C2.28269531 4.99851562 1.75289063 4.37203125 1.20703125 3.7265625 C0 2 0 2 0 0 Z " fill="#0C0D0D" transform="translate(401,596)"/>
<path d="M0 0 C1.12894876 0.93274109 2.25300876 1.87140122 3.375 2.8125 C4.00148438 3.33457031 4.62796875 3.85664062 5.2734375 4.39453125 C7 6 7 6 9 9 C6 9 6 9 4.39453125 7.5390625 C3.61142578 6.59160156 3.61142578 6.59160156 2.8125 5.625 C2.28269531 4.99851562 1.75289063 4.37203125 1.20703125 3.7265625 C0 2 0 2 0 0 Z " fill="#080909" transform="translate(430,578)"/>
<path d="M0 0 C0.33 0.66 0.66 1.32 1 2 C2.175625 2.4640625 2.175625 2.4640625 3.375 2.9375 C5.95982105 3.98373709 7.2046169 4.92113535 9 7 C8.67 7.66 8.34 8.32 8 9 C6.65826597 8.07456291 5.32679841 7.13422595 4 6.1875 C3.2575 5.66542969 2.515 5.14335938 1.75 4.60546875 C1.1725 4.07566406 0.595 3.54585937 0 3 C0 2.01 0 1.02 0 0 Z " fill="#080909" transform="translate(548,570)"/>
<path d="M0 0 C3.48864279 0.36089408 6.09032693 2.1410422 9 4 C5.78798216 5.60600892 3.29112979 4.05786315 0 3 C-0.66 2.67 -1.32 2.34 -2 2 C-1.34 1.34 -0.68 0.68 0 0 Z " fill="#080909" transform="translate(255,316)"/>
<path d="M0 0 C3.77545388 1.09068668 6.47043472 1.9083091 9 5 C8.01 5.495 8.01 5.495 7 6 C4.5249829 4.88568235 2.32116581 3.41849022 0 2 C0 1.34 0 0.68 0 0 Z " fill="#090A0B" transform="translate(545,677)"/>
<path d="M0 0 C3.76488042 1.72154788 6.15063897 3.99234114 9 7 C6 7 6 7 4.39453125 5.46875 C3.87246094 4.8190625 3.35039062 4.169375 2.8125 3.5 C2.28269531 2.8503125 1.75289063 2.200625 1.20703125 1.53125 C0.80871094 1.0259375 0.41039062 0.520625 0 0 Z " fill="#0D0E0F" transform="translate(278,651)"/>
<path d="M0 0 C0.33 0.66 0.66 1.32 1 2 C-2.75 7.875 -2.75 7.875 -5 9 C-3.7508258 5.54074837 -2.32472205 2.85306797 0 0 Z " fill="#070708" transform="translate(657,602)"/>
<path d="M0 0 C0 0.66 0 1.32 0 2 C-1.53125 3.2890625 -1.53125 3.2890625 -3.5 4.625 C-4.1496875 5.07101562 -4.799375 5.51703125 -5.46875 5.9765625 C-5.9740625 6.31429688 -6.479375 6.65203125 -7 7 C-6.2421875 3.21875 -6.2421875 3.21875 -4.0625 1.25 C-2 0 -2 0 0 0 Z " fill="#0C0C0D" transform="translate(494,386)"/>
<path d="M0 0 C3 1 3 1 4.25 2.875 C5 5 5 5 4 8 C3.34 7.34 2.68 6.68 2 6 C2 5.01 2 4.02 2 3 C1.34 2.67 0.68 2.34 0 2 C0 1.34 0 0.68 0 0 Z " fill="#0B0C0C" transform="translate(697,341)"/>
<path d="M0 0 C3.11198065 1.49836105 6.0534615 3.19933758 9 5 C8.34 5.66 7.68 6.32 7 7 C5.83040013 6.02433888 4.66438823 5.044375 3.5 4.0625 C2.8503125 3.51722656 2.200625 2.97195313 1.53125 2.41015625 C1.0259375 1.94480469 0.520625 1.47945313 0 1 C0 0.67 0 0.34 0 0 Z " fill="#0B0B0C" transform="translate(362,275)"/>
</svg>
