<?xml version="1.0" encoding="UTF-8"?>
<svg version="1.1" xmlns="http://www.w3.org/2000/svg" width="2000" height="520">
<path d="M0 0 C0.54543457 0.4424707 1.09086914 0.88494141 1.65283203 1.34082031 C15.37409634 12.55976244 28.1814377 24.93792186 39 39 C40.15822266 40.43279297 40.15822266 40.43279297 41.33984375 41.89453125 C83.67873048 95.06896245 100.44760721 163.00982611 93 230 C89.25119408 259.23356252 80.71212951 304.28787049 59 326 C50.48248106 332.25964215 42.51813244 334.00113834 32 333 C22.92091991 330.70228479 17.02312297 326.13684261 12.078125 318.2578125 C8.80572992 311.40475324 8.70094203 304.97700416 8.5625 297.5 C6.94707102 243.55236447 -4.72021503 190.75981864 -28 142 C-28.45906738 141.03497559 -28.91813477 140.06995117 -29.39111328 139.07568359 C-44.68168006 107.18239983 -64.33249546 76.62963417 -88.515625 50.6953125 C-90.47889344 48.56535146 -92.37936161 46.40841054 -94.26953125 44.21484375 C-98.14511501 39.77008911 -102.25764375 35.59478277 -106.4375 31.4375 C-107.50581055 30.36338867 -107.50581055 30.36338867 -108.59570312 29.26757812 C-113.23272683 24.63897771 -118.00936087 20.24380816 -123 16 C-123.63703857 15.45625732 -124.27407715 14.91251465 -124.93041992 14.35229492 C-138.49908165 2.85322612 -152.61413373 -7.76126502 -167.625 -17.3125 C-168.70769165 -18.02442505 -168.70769165 -18.02442505 -169.81225586 -18.75073242 C-174.59563664 -21.70943873 -178.35184841 -22.68261151 -184 -22 C-184.83789062 -21.90211182 -185.67578125 -21.80422363 -186.5390625 -21.70336914 C-189.4335827 -21.31717651 -192.30781518 -20.8594177 -195.1875 -20.375 C-196.22672607 -20.20186279 -197.26595215 -20.02872559 -198.33666992 -19.8503418 C-209.81425757 -17.83451482 -220.952893 -14.682369 -232 -11 C-227.49193277 -7.82484688 -222.98308811 -4.6536436 -218.40625 -1.578125 C-191.45362768 16.59268325 -165.04007279 38.15846005 -143.82421875 62.90234375 C-142.5803046 64.33271184 -141.31065931 65.74100725 -140.01953125 67.12890625 C-132.74401551 74.96101882 -126.39654448 83.45114686 -120 92 C-119.51208984 92.64662598 -119.02417969 93.29325195 -118.52148438 93.95947266 C-62.46189687 168.29851764 -37.586091 257.53848983 -36.82421875 349.6796875 C-36.8122496 350.92322998 -36.80028046 352.16677246 -36.78794861 353.44799805 C-36.73940189 358.55991184 -36.69163423 363.67156332 -36.67407227 368.78369141 C-36.65858249 372.58273714 -36.61845821 376.38088181 -36.57421875 380.1796875 C-36.57708138 381.89235306 -36.57708138 381.89235306 -36.58000183 383.63961792 C-36.42913653 393.54716081 -34.08060658 401.81672659 -27.19921875 409.17578125 C-19.84239734 415.27815354 -11.24371162 418.40271488 -1.78515625 418.27734375 C6.42679131 417.45960423 14.15423761 413.80828955 20 408 C22.54278172 404.79902036 24.77010625 401.42377492 27 398 C37.20175849 382.52297323 51.49360482 372.01805322 69.6875 368 C89.7449544 364.76560421 107.12145958 368.88406863 123.9140625 379.9140625 C132.11689092 386.08523063 138.26801283 393.94496227 143.4375 402.75 C148.00373014 410.1318963 154.91610735 415.04650326 163.2421875 417.5234375 C167.75189213 418.3027349 172.31257579 418.46253314 176.88500977 418.53466797 C182.319196 418.68563492 186.48562765 419.70660574 190.64453125 423.5 C194.87447117 428.93243121 195.79626079 433.25982061 195 440 C193.18811907 445.31139954 189.88093952 448.35615776 185 451 C171.33911197 455.42659677 153.47771658 450.94776402 141 445 C128.29774622 438.0837662 120.04290547 429.37549178 112.29296875 417.3515625 C107.14343707 409.60982865 101.5982923 404.09005982 92.4765625 401.47265625 C81.78466149 399.43208839 72.10047615 401.49153118 62.9375 407.3125 C57.91481658 411.33682216 54.80107229 417.02476046 51.36328125 422.375 C42.04420973 436.82454728 27.69938443 446.32259874 11.05859375 450.4296875 C-9.23862364 454.21435383 -26.75611322 450.38105447 -43.90625 439.0859375 C-58.4985016 428.1417488 -66.93907477 412.74588254 -70 395 C-70.34389432 390.50127407 -70.42102368 386.02693313 -70.41069031 381.51581764 C-70.40608695 379.31663832 -70.42056557 377.11821343 -70.43908691 374.91911316 C-70.47547253 370.21692062 -70.48943655 365.51481207 -70.5 360.8125 C-70.54219585 342.35496873 -70.73659949 324.01199757 -72.39453125 305.6171875 C-72.45610413 304.92883631 -72.517677 304.24048512 -72.58111572 303.5312748 C-78.89022282 234.50960933 -105.08256201 167.17800126 -147 112 C-147.70503662 111.06752441 -147.70503662 111.06752441 -148.42431641 110.11621094 C-151.54082725 106.01466599 -154.74259945 101.99028668 -158 98 C-158.43586426 97.45972168 -158.87172852 96.91944336 -159.32080078 96.36279297 C-167.01074012 86.90105572 -175.53322235 78.2584625 -184.125 69.625 C-184.95428513 68.78781433 -184.95428513 68.78781433 -185.80032349 67.93371582 C-192.86822422 60.81382886 -200.13408378 54.24650944 -208 48 C-209.21345891 46.97609589 -210.42243742 45.94683624 -211.625 44.91015625 C-223.93892941 34.44576417 -237.43385211 25.72586999 -251 17 C-251.91749023 16.40300293 -252.83498047 15.80600586 -253.78027344 15.19091797 C-256.10941996 13.68485669 -258.45438092 12.21014308 -260.8125 10.75 C-261.46855225 10.32565674 -262.12460449 9.90131348 -262.80053711 9.46411133 C-265.87841434 7.62015602 -267.51454923 6.91490838 -271.09765625 7.54296875 C-284.92414646 14.48412736 -297.16013662 25.14121612 -309 35 C-306.15227354 38.03402632 -303.25486732 40.26784986 -299.75 42.5 C-286.73283518 51.05142214 -274.65797545 60.68957635 -263 71 C-262.08347656 71.804375 -261.16695312 72.60875 -260.22265625 73.4375 C-254.60377956 78.42436128 -249.26688909 83.64516657 -244 89 C-241.34594671 91.66717052 -238.6777076 94.31791997 -235.984375 96.9453125 C-230.09082814 102.72015477 -224.48249024 108.54228465 -219.35546875 115.0234375 C-217.61398809 117.22411456 -215.85165773 119.38812736 -214.05078125 121.5390625 C-149.17922244 199.34915831 -115.49347298 303.96904214 -122.59765625 418.44921875 C-122.8309006 420.98744706 -123.06910529 423.52522491 -123.3125 426.0625 C-123.41788086 427.2469873 -123.52326172 428.43147461 -123.63183594 429.65185547 C-124.45619714 437.47651136 -125.61682161 442.86437125 -131.5625 448.375 C-135.96763068 451.31175379 -140.30883531 451.30373363 -145.4375 451.5625 C-146.18193359 451.60568359 -146.92636719 451.64886719 -147.69335938 451.69335938 C-180.20271145 453.43050033 -212.23976144 448.45133179 -243 438 C-243.71623535 437.76200684 -244.4324707 437.52401367 -245.17041016 437.27880859 C-276.08962495 426.89711948 -305.30165004 409.38680006 -329 387 C-330.30794571 385.86970833 -331.62036248 384.74456689 -332.9375 383.625 C-341.85013237 375.82644668 -349.7124123 367.32296532 -357 358 C-358.00899557 356.74339401 -359.01811822 355.48689006 -360.02734375 354.23046875 C-368.37432488 343.71322229 -375.38942726 332.67510522 -382 321 C-382.41233887 320.28376465 -382.82467773 319.5675293 -383.24951172 318.82958984 C-395.6691346 297.14006288 -403.54731551 273.17737495 -408.75 248.8125 C-408.94883789 247.88767822 -409.14767578 246.96285645 -409.35253906 246.01000977 C-412.6102344 229.97158775 -413.37468103 214.19828727 -413.3125 197.875 C-413.31067719 196.88176727 -413.30885437 195.88853455 -413.30697632 194.86520386 C-413.26225311 180.39425837 -412.89830215 166.22474467 -410 152 C-409.81775879 151.0836377 -409.63551758 150.16727539 -409.44775391 149.22314453 C-408.13610223 142.77008127 -406.63392752 136.37855368 -405 130 C-404.81211914 129.25588867 -404.62423828 128.51177734 -404.43066406 127.74511719 C-391.628771 78.02083022 -359.70799812 30.28886026 -319 -1 C-317.74906037 -2.00143156 -316.49913582 -3.00413187 -315.25 -4.0078125 C-241.86446718 -62.31484345 -138.75819819 -72.32979612 0 0 Z M-112 -18 C-108.82527024 -14.73456367 -105.58810596 -11.80047295 -102 -9 C-95.70206673 -3.91386419 -90.07780025 1.74937386 -84.4296875 7.53759766 C-81.32266311 10.71571857 -78.16527003 13.84141493 -74.984375 16.9453125 C-69.03316177 22.77761123 -63.40838573 28.66544681 -58.23046875 35.2109375 C-56.2348695 37.7063103 -54.17015906 40.12289485 -52.07055664 42.53076172 C-45.08242107 50.58592947 -39.00807004 59.20019786 -33 68 C-32.55769043 68.64227539 -32.11538086 69.28455078 -31.65966797 69.94628906 C-25.45060814 78.97636547 -19.7160213 88.23621354 -14.28417969 97.75341797 C-13.42845418 99.25044955 -12.56711903 100.74428857 -11.70019531 102.23486328 C21.6201272 159.62535206 36.75130181 224.25253413 41 290 C57.45289278 273.54710722 61.39238595 229.87410586 62 208 C62.02578125 207.25878906 62.0515625 206.51757812 62.078125 205.75390625 C63.6925993 154.01000483 47.32033628 102.57815485 15 62 C14.22785156 61.02289063 13.45570313 60.04578125 12.66015625 59.0390625 C0.58853384 44.11237539 -13.30358076 30.0969825 -29 19 C-29.59200195 18.57960449 -30.18400391 18.15920898 -30.79394531 17.72607422 C-40.14631404 11.15259572 -49.88909757 5.32616959 -60 0 C-60.63534668 -0.33741211 -61.27069336 -0.67482422 -61.92529297 -1.02246094 C-71.31225371 -5.93020629 -81.03034073 -9.55864343 -91.0625 -12.9375 C-92.21661377 -13.32744141 -93.37072754 -13.71738281 -94.55981445 -14.11914062 C-100.40347345 -16.03026367 -105.86333504 -17.52679328 -112 -18 Z M-334 61 C-341.14331084 70.29298008 -347.55687234 79.69967059 -352.99560547 90.09716797 C-353.70885545 91.44842473 -354.45061264 92.78480339 -355.21142578 94.10986328 C-355.59669434 94.80708496 -355.98196289 95.50430664 -356.37890625 96.22265625 C-356.73670166 96.85051025 -357.09449707 97.47836426 -357.46313477 98.12524414 C-358.20794276 100.0326252 -358.20794276 100.0326252 -357.27856445 101.98266602 C-354.89690996 105.7404684 -352.26776361 109.29763057 -349.625 112.875 C-348.68877808 114.14331665 -348.68877808 114.14331665 -347.73364258 115.43725586 C-342.15010559 122.92705557 -336.22270704 130.03730767 -330 137 C-328.81470703 138.33417969 -328.81470703 138.33417969 -327.60546875 139.6953125 C-326.14831386 141.32344704 -324.68501495 142.94610924 -323.21484375 144.5625 C-321.63363762 146.30266336 -320.06462753 148.05394081 -318.50390625 149.8125 C-314.17417884 154.66284913 -309.82908216 159.21414806 -304.8515625 163.3984375 C-303.0256348 164.97782644 -301.36194426 166.6370697 -299.6875 168.375 C-295.61054964 172.50692047 -291.13469605 176.09566145 -286.60253906 179.71386719 C-284.91069809 181.07167009 -283.23223176 182.44489406 -281.5546875 183.8203125 C-252.15450746 207.81738751 -219.12251537 226.7117591 -184 241 C-182.77136371 237.31409113 -183.33127262 236.63342089 -184.921875 233.1953125 C-185.3643457 232.23044922 -185.80681641 231.26558594 -186.26269531 230.27148438 C-186.75350586 229.23314453 -187.24431641 228.19480469 -187.75 227.125 C-188.25370117 226.04798828 -188.75740234 224.97097656 -189.27636719 223.86132812 C-203.70570529 193.2765255 -221.14227934 164.8685778 -243 139 C-243.41547089 138.50252258 -243.83094177 138.00504517 -244.25900269 137.49249268 C-251.42413874 128.91466028 -258.90468334 120.77607734 -266.83666992 112.90258789 C-268.57254731 111.17751523 -270.2973509 109.44188009 -272.02148438 107.70507812 C-278.70581491 101.01243308 -285.56045538 94.85425353 -293 89 C-294.2200667 87.99927804 -295.4378566 86.99576731 -296.65234375 85.98828125 C-303.75975692 80.17186928 -311.06648744 74.68173575 -318.5625 69.375 C-319.4073999 68.77083252 -320.2522998 68.16666504 -321.12280273 67.54418945 C-325.3011063 64.62325929 -328.9801873 62.25291921 -334 61 Z M-372 138 C-374.38281763 143.88576321 -375.9191242 149.57361968 -377.0625 155.8125 C-377.23168945 156.71814697 -377.40087891 157.62379395 -377.57519531 158.55688477 C-379.09976977 167.0103417 -380.23894795 175.52545062 -380.85375977 184.09594727 C-380.97957019 185.73400322 -381.19068694 187.36510466 -381.41796875 188.9921875 C-380.75396248 193.7705504 -377.94361968 196.91963791 -375.0625 200.6875 C-374.46493896 201.48841064 -373.86737793 202.28932129 -373.25170898 203.11450195 C-371.51840355 205.42347658 -369.76437412 207.71471542 -368 210 C-367.21625 211.0209375 -366.4325 212.041875 -365.625 213.09375 C-356.90666511 224.0577166 -346.99377284 234.07895875 -337.125 244 C-336.53122559 244.59844727 -335.93745117 245.19689453 -335.32568359 245.81347656 C-288.50258492 292.46725666 -222.17876183 329.06531058 -157 341 C-157.57323013 329.97553536 -159.41758824 319.34427165 -161.67211914 308.56030273 C-161.95593888 307.19906578 -162.23971226 305.83781916 -162.5234375 304.4765625 C-162.66190598 303.81872269 -162.80037445 303.16088287 -162.94303894 302.48310852 C-163.6811899 298.88875923 -164.21407519 295.36962932 -164.4765625 291.7109375 C-164.86247544 287.51431051 -165.49593031 284.52149318 -168 281 C-173.96880964 277.3333831 -180.98312742 275.84065556 -187.67236328 274 C-193.30619324 272.30695763 -198.66560856 270.01408649 -204.0625 267.6875 C-205.1558667 267.21812012 -206.2492334 266.74874023 -207.37573242 266.26513672 C-233.59387365 254.87000726 -258.9075439 240.90675849 -282 224 C-282.67063477 223.51047852 -283.34126953 223.02095703 -284.03222656 222.51660156 C-295.25698801 214.28719719 -306.13897465 205.73284629 -316.41796875 196.3359375 C-317.83672909 195.0523994 -319.26179872 193.77531336 -320.71362305 192.52929688 C-326.54395698 187.52072736 -332.00196815 182.18161294 -337.4375 176.75 C-338.32759766 175.87214844 -339.21769531 174.99429688 -340.13476562 174.08984375 C-346.19711016 168.04078412 -351.66669862 161.69448239 -357 155 C-358.92122694 152.67360871 -360.86413248 150.3661752 -362.8125 148.0625 C-363.26302734 147.52560547 -363.71355469 146.98871094 -364.17773438 146.43554688 C-366.66740869 143.48925108 -369.22740049 140.6821184 -372 138 Z M-373 254 C-365.38922204 292.29172662 -342.49004122 326.20983406 -316 354 C-315.24203125 354.79921875 -314.4840625 355.5984375 -313.703125 356.421875 C-298.29245888 372.26972314 -279.59168776 384.93438344 -260 395 C-259.33774414 395.34869141 -258.67548828 395.69738281 -257.99316406 396.05664062 C-226.77758386 412.37423028 -191.06580898 419.80817485 -156 419 C-154.79639209 409.61754464 -154.88696437 400.31467481 -154.9375 390.875 C-154.94252563 389.23437637 -154.94708665 387.59375124 -154.95117188 385.953125 C-154.96209195 381.96871258 -154.97929782 377.9843731 -155 374 C-155.94915283 373.77449463 -156.89830566 373.54898926 -157.8762207 373.31665039 C-227.86964868 356.60704052 -293.0794476 327.01109782 -346.6875 278.09375 C-348.65655591 276.31095614 -350.65890202 274.58881553 -352.6875 272.875 C-357.71645783 268.52141874 -362.32674646 263.72025769 -366.98510742 258.97802734 C-367.61779541 258.33687988 -368.2504834 257.69573242 -368.90234375 257.03515625 C-369.47460693 256.4512915 -370.04687012 255.86742676 -370.63647461 255.26586914 C-371.81205317 253.88660407 -371.81205317 253.88660407 -373 254 Z " fill="#F2F2F2" transform="translate(434,61)"/>
<path d="M0 0 C1.04542969 0.47953125 2.09085938 0.9590625 3.16796875 1.453125 C22.41323009 10.92630023 35.54614151 28.09311738 42.734375 48.03759766 C45.80610155 57.10559041 47.61496899 66.41493382 49 75.875 C49.14920898 76.7817749 49.29841797 77.6885498 49.45214844 78.62280273 C50.40052267 86.00996975 49.44325304 92.68757369 48.24076843 99.96394348 C46.61176691 109.95454109 45.92745531 119.9658507 45.3125 130.0625 C45.24962799 131.0643634 45.18675598 132.06622681 45.12197876 133.09844971 C42.72530411 171.97426579 41.00103023 213.37596917 51.12890625 251.36328125 C52.39085587 256.63177944 52.64737593 261.96602965 49.98828125 266.86328125 C46.51450303 271.27947249 42.43769243 273.86839918 37 275 C31.29431911 275.53944619 26.86904677 275.31980462 22 272 C7.3723217 259.46199003 8.8457613 224.87573576 7.44973755 206.98953247 C6.94083876 200.32812897 6.45921755 193.66500305 6 187 C5.34100708 188.05513794 5.34100708 188.05513794 4.66870117 189.1315918 C1.07020703 194.84741722 -2.60697166 200.43013902 -6.6875 205.8125 C-7.20094971 206.49062744 -7.71439941 207.16875488 -8.2434082 207.86743164 C-30.94516982 237.56500691 -54.43000699 260.02086604 -92 267 C-93.03125 267.20109375 -94.0625 267.4021875 -95.125 267.609375 C-115.38627006 270.36226495 -135.35908768 265.59161386 -151.765625 253.26953125 C-175.74848568 234.16345294 -187.36008014 204.78296794 -190.9140625 174.96801758 C-195.81287591 129.63212383 -185.6768569 81.45901714 -156.625 45.3125 C-155.09636137 43.53040833 -153.55426423 41.75978678 -152 40 C-151.16855469 39.02417969 -150.33710937 38.04835937 -149.48046875 37.04296875 C-139.39465591 25.41398166 -127.38571641 16.55671324 -114 9 C-112.98292969 8.41734375 -111.96585938 7.8346875 -110.91796875 7.234375 C-95.66981193 -0.95205986 -78.12539028 -6.56540624 -61 -9 C-60.05253906 -9.14050781 -59.10507813 -9.28101563 -58.12890625 -9.42578125 C-38.29841535 -11.70862556 -17.97709825 -8.66014476 0 0 Z M-115 54 C-115.4856543 54.43795898 -115.97130859 54.87591797 -116.47167969 55.32714844 C-141.44893632 78.05853742 -154.00205937 112.61630651 -155.8125 145.8125 C-156.62836274 166.28483988 -153.87491758 187.7535105 -144 206 C-143.53722656 206.87011719 -143.07445312 207.74023438 -142.59765625 208.63671875 C-136.70286906 219.09722971 -129.00959867 225.42124315 -118.0625 230.3125 C-117.051875 230.539375 -116.04125 230.76625 -115 231 C-113.97519531 231.23396484 -113.97519531 231.23396484 -112.9296875 231.47265625 C-101.57329049 233.30605577 -86.69311851 230.88162513 -76.875 224.8125 C-75.21871674 223.58271622 -73.59302897 222.31068725 -72 221 C-71.09378906 220.30648437 -70.18757813 219.61296875 -69.25390625 218.8984375 C-58.86167299 210.74031818 -50.13684057 201.36993575 -42 191 C-40.79537109 189.48599609 -40.79537109 189.48599609 -39.56640625 187.94140625 C-20.13389364 163.30430023 -4.26728034 135.12815276 7.22314453 105.96679688 C7.91077954 104.22588309 8.62348262 102.4949166 9.33984375 100.765625 C15.01343015 86.47061015 12.8692444 72.51268852 7.25 58.5625 C4.53497267 52.66318135 1.33858337 47.81100689 -3 43 C-3.49757813 42.38769531 -3.99515625 41.77539062 -4.5078125 41.14453125 C-11.71310491 32.9435326 -23.73185515 27.71816129 -34.4987793 26.78295898 C-63.65922612 25.48971269 -93.19645483 33.97633607 -115 54 Z " fill="#F0F0F0" transform="translate(1596,163)"/>
<path d="M0 0 C19.84993109 14.11550655 28.75366114 47.31894847 32.8125 70 C32.9375 73.0625 32.9375 73.0625 32.8125 75 C33.4725 75 34.1325 75 34.8125 75 C35.080625 74.278125 35.34875 73.55625 35.625 72.8125 C47.11236245 45.60558892 74.54994454 20.95514613 101.21484375 9.4609375 C129.74290591 -2.12374789 163.01978865 -2.35100656 191.66748047 9.07714844 C214.38419961 18.8505605 233.65906135 36.1975204 246.8125 57 C247.38991943 57.90758057 247.38991943 57.90758057 247.97900391 58.83349609 C271.96990324 97.2370262 275.7967592 145.5678383 266.3359375 189.10546875 C260.03541735 216.21640516 249.77768814 241.77520883 236.4375 266.1875 C236.0451416 266.91163086 235.6527832 267.63576172 235.24853516 268.38183594 C232.29091581 273.63227131 229.28341085 277.95461464 223.5625 280.375 C216.26946709 281.59050549 210.65695448 280.71905582 204.5390625 276.44140625 C200.80134605 273.32100496 198.72874066 269.80776782 197.5625 265.125 C197.12140316 258.27103378 201.32275901 252.35265141 204.47363281 246.52587891 C227.26121706 203.53529783 242.19114451 154.47290306 228.46923828 106.12646484 C220.58977617 80.61341095 204.63795766 58.65900187 180.8125 46 C161.39789465 37.12603885 137.98577273 35.50346024 117.8125 43 C108.12430178 46.97441007 99.56763986 51.89347184 91.8125 59 C91.16539063 59.5671875 90.51828125 60.134375 89.8515625 60.71875 C62.6682023 86.01591786 43.19333726 132.91975622 41.65478516 169.77832031 C41.63309496 171.21153422 41.61560238 172.64481574 41.6015625 174.078125 C41.57559622 175.71029685 41.54895354 177.34245804 41.52172852 178.97460938 C41.50180344 180.26274536 41.50180344 180.26274536 41.48147583 181.5769043 C41.21809496 197.58665959 40.53969652 213.53043481 39.375 229.5 C39.31346741 230.35984497 39.25193481 231.21968994 39.1885376 232.10559082 C38.78053658 237.74187407 38.32389437 243.37215579 37.8125 249 C37.74133972 249.79083984 37.67017944 250.58167969 37.59686279 251.39648438 C37.38077348 253.71409114 37.14536514 256.02882704 36.90234375 258.34375 C36.83817764 259.02932983 36.77401154 259.71490967 36.707901 260.42126465 C36.13905528 265.49125168 34.78616577 269.79598597 31.33984375 273.64453125 C26.43167329 277.25028793 21.88495896 278.29712337 15.8125 278 C9.57674244 277.03756796 5.83986562 274.70064564 1.90625 269.81640625 C-0.20508932 266.31007488 -0.31834088 262.84600625 -0.34863281 258.82128906 C-0.35811447 257.78265717 -0.36759613 256.74402527 -0.37736511 255.67391968 C-0.38174088 254.54918243 -0.38611664 253.42444519 -0.390625 252.265625 C-0.39745804 251.09133942 -0.40429108 249.91705383 -0.41133118 248.70718384 C-0.42847878 244.88809372 -0.43466793 241.06912644 -0.4375 237.25 C-0.43950409 235.95966858 -0.44150818 234.66933716 -0.443573 233.33990479 C-0.45152819 212.51971639 0.08781729 191.94752647 3.3984375 171.35546875 C8.10319292 133.22919603 1.19703749 90.18711694 -10.5625 53.875 C-10.91328613 52.77309326 -11.26407227 51.67118652 -11.62548828 50.53588867 C-14.50807272 41.95491587 -18.65650396 34.57655233 -23.48339844 26.95336914 C-26.3533765 22.25686432 -27.68415297 18.29754474 -26.8515625 12.76953125 C-25.38877482 7.09885434 -22.91637621 4.36059742 -18.125 1.09375 C-12.56734704 -2.04363474 -5.96716288 -1.8720511 0 0 Z " fill="#F0F0F0" transform="translate(956.1875,153)"/>
<path d="M0 0 C5.66903861 3.0444837 9.08390172 6.78329401 11.375 12.8125 C11.62572477 17.64631552 11.09354961 21.71151464 9.8359375 26.37109375 C9.50553467 27.62784912 9.17513184 28.88460449 8.8347168 30.17944336 C8.65774261 30.84168915 8.48076843 31.50393494 8.2984314 32.18624878 C-6.45512231 87.70397563 -18.84801883 157.41584598 9.375 210.8125 C12.10592486 215.34616721 15.17836651 219.59480028 18.375 223.8125 C18.88933594 224.51246094 19.40367187 225.21242188 19.93359375 225.93359375 C26.54972348 234.34901089 35.93743257 239.7445646 46.375 241.8125 C65.87202007 243.72474565 81.89183477 236.38328943 96.80273438 224.15332031 C125.11325968 200.01024501 139.9176451 163.81269744 146.375 127.8125 C146.47404502 126.17506772 146.52985919 124.5346053 146.54858398 122.89428711 C146.56215439 121.93399094 146.57572479 120.97369476 146.58970642 119.98429871 C146.60006424 118.94662857 146.61042206 117.90895844 146.62109375 116.83984375 C146.65275155 114.5751919 146.68466346 112.31054359 146.71679688 110.04589844 C146.73987915 108.26016418 146.73987915 108.26016418 146.76342773 106.43835449 C147.02249742 86.96623851 147.46088208 67.51544471 148.375 48.0625 C148.41688446 47.1541037 148.45876892 46.2457074 148.50192261 45.30978394 C149.96298614 14.00929367 149.96298614 14.00929367 156.9375 7.375 C162.31901177 3.92531297 168.18106417 4.22182003 174.375 4.8125 C180.12357963 7.58413661 183.81845216 12.01115302 186.375 17.8125 C186.78068542 19.85469055 186.78068542 19.85469055 186.99682617 22.05981445 C187.07919022 22.89884811 187.16155426 23.73788177 187.24641418 24.6023407 C187.32365219 25.51345108 187.4008902 26.42456146 187.48046875 27.36328125 C187.56435349 28.32865311 187.64823822 29.29402496 187.73466492 30.28865051 C188.6114922 41.34709787 188.71150299 52.39948986 188.69067383 63.48754883 C188.68751839 66.97964907 188.71107533 70.47089431 188.73632812 73.96289062 C188.77115932 86.94189408 188.0332273 99.5851121 186.46012878 112.46887207 C185.41815901 121.0382632 184.90298569 129.3662872 185 138 C185.00432037 138.68308228 185.00864075 139.36616455 185.01309204 140.06994629 C184.56220898 198.3128249 184.56220898 198.3128249 203.375 251.8125 C205.26917683 253.65979126 207.2801553 255.18317635 209.375 256.8125 C212.30594781 262.49555813 212.00280406 268.5815447 211.375 274.8125 C209.12805403 279.73849693 206.18368236 282.36279389 201.375 284.8125 C194.72045988 286.67730395 188.54517253 285.82650133 182.375 282.8125 C165.69251495 271.92711522 160.43463808 249.99035894 156.54003906 231.64916992 C154.12435725 219.79900566 154.12435725 219.79900566 154.375 213.8125 C153.715 213.8125 153.055 213.8125 152.375 213.8125 C152.13910156 214.50988281 151.90320313 215.20726562 151.66015625 215.92578125 C150.14397795 219.33142187 148.10511081 222.09408759 145.8125 225 C145.36632324 225.57097412 144.92014648 226.14194824 144.46044922 226.73022461 C140.32350879 231.97137496 135.96796856 236.96478278 131.375 241.8125 C130.71443604 242.52188721 130.71443604 242.52188721 130.04052734 243.24560547 C112.04713951 262.47819009 87.76514658 278.03009098 60.83203125 279.1484375 C35.20664828 279.55433531 13.89307946 272.36131102 -5.03515625 254.4921875 C-31.73444862 226.86667534 -42.63729839 183.29366801 -42.828125 145.7578125 C-42.83518463 144.82700363 -42.84224426 143.89619476 -42.84951782 142.93717957 C-42.96994118 122.359223 -42.75825219 102.19282969 -39.625 81.8125 C-39.429165 80.48624241 -39.23387558 79.15990418 -39.0390625 77.83349609 C-36.49767128 60.72020436 -33.14557983 43.85954946 -29 27.0625 C-28.81217957 26.29083496 -28.62435913 25.51916992 -28.43084717 24.72412109 C-27.89142287 22.52608648 -27.33577704 20.3328964 -26.7734375 18.140625 C-26.45552246 16.8918457 -26.13760742 15.64306641 -25.81005859 14.35644531 C-24.21278846 9.57977178 -22.39355661 5.1603949 -18.29296875 2.03515625 C-11.66109608 -1.06668026 -7.19225085 -2.35608217 0 0 Z " fill="#F0F0F0" transform="translate(687.625,158.1875)"/>
<path d="M0 0 C4.28874623 3.06339016 7.08931602 6.10319392 8.60693359 11.12280273 C8.78562988 12.35973877 8.96432617 13.5966748 9.1484375 14.87109375 C9.25876312 15.58962021 9.36908875 16.30814667 9.48275757 17.04844666 C9.73548627 18.70720527 9.97915761 20.36735909 10.21569824 22.02850342 C10.66930801 25.18314088 11.15515239 28.33182425 11.64550781 31.48095703 C12.43347542 36.54874217 13.21343187 41.61767923 13.98657227 46.68774414 C24.0052684 149.48923971 24.0052684 149.48923971 65.625 239.875 C111.56402324 204.40059667 125.28212194 99.98472232 138.9375 47.08984375 C139.21089706 46.03288803 139.48429413 44.97593231 139.76597595 43.88694763 C141.08947728 38.76729533 142.40511961 33.64588404 143.70532227 28.52026367 C144.17966483 26.67231567 144.65418355 24.82441288 145.12890625 22.9765625 C145.44220886 21.72340492 145.44220886 21.72340492 145.76184082 20.44493103 C147.55843319 13.49784118 149.41713088 8.01357942 155.625 3.875 C160.46808024 1.25711879 165.42001804 1.21355907 170.70703125 2.3046875 C176.1890379 4.00274692 179.49538536 7.11018878 182.625 11.875 C185.3052701 19.91581031 182.93599676 27.82134456 180.8359375 35.71875 C180.5411853 36.8601796 180.24643311 38.00160919 179.94274902 39.17762756 C178.97378435 42.91332007 177.98784665 46.64425959 177 50.375 C176.65926367 51.67329968 176.31895484 52.97171162 175.97906494 54.27023315 C144.69679354 173.74446223 144.69679354 173.74446223 120.625 223.875 C120.29048828 224.58495117 119.95597656 225.29490234 119.61132812 226.02636719 C110.0952773 246.18073214 97.9441923 267.65716741 76.625 276.875 C68.61983348 279.54338884 58.47407389 278.78615088 50.890625 275.1953125 C23.52795669 259.24948166 13.32553132 224.22204955 5.6171875 195.57421875 C4.94700253 193.00917748 4.28157203 190.44350287 3.625 187.875 C3.44988892 187.19068909 3.27477783 186.50637817 3.09436035 185.80133057 C-6.5229683 148.03194977 -13.56879243 109.77488093 -19.75 71.3125 C-19.85637157 70.65067719 -19.96274315 69.98885437 -20.0723381 69.30697632 C-21.53917842 60.16794886 -22.96923296 51.02360252 -24.375 41.875 C-24.61748474 40.3152243 -24.61748474 40.3152243 -24.86486816 38.72393799 C-25.30629968 35.87053533 -25.73720438 33.01577079 -26.1640625 30.16015625 C-26.28945404 29.35525253 -26.41484558 28.55034882 -26.54403687 27.72105408 C-28.72653463 12.77046065 -28.72653463 12.77046065 -25.75 7 C-19.37998682 -1.38159629 -9.76930541 -3.25643514 0 0 Z " fill="#F0F0F0" transform="translate(1711.375,154.125)"/>
<path d="M0 0 C4.85329503 3.96930201 7.33841294 7.29580014 8.0234375 13.66015625 C8.15492503 24.82344719 8.15492503 24.82344719 3.6875 29.5390625 C0.91874161 31.88090863 -1.22412657 32.99229215 -4.76953125 33.71484375 C-5.62748291 33.89958252 -6.48543457 34.08432129 -7.36938477 34.2746582 C-8.27873779 34.46503662 -9.18809082 34.65541504 -10.125 34.8515625 C-38.8726296 41.33563762 -59.93520979 57.74478973 -75.74609375 82.42578125 C-76.60545356 83.79443956 -77.46092636 85.16554614 -78.3125 86.5390625 C-78.72258301 87.19986816 -79.13266602 87.86067383 -79.55517578 88.54150391 C-106.94609989 133.46087964 -122.91096892 195.55321592 -121.0847168 248.05444336 C-120.69433887 260.07965849 -120.69433887 260.07965849 -124.3125 264.5390625 C-126.2578125 266.19921875 -126.2578125 266.19921875 -128.3125 267.5390625 C-128.94929688 267.97089844 -129.58609375 268.40273438 -130.2421875 268.84765625 C-136.18805068 272.29816721 -142.2920033 273.32022544 -148.9375 271.6015625 C-154.9597007 267.92132874 -159.75981985 262.61856457 -161.94921875 255.80859375 C-162.86267 250.10197897 -162.15421056 244.10348409 -160.3605957 238.63891602 C-158.78598839 233.18327251 -158.49590005 227.55059805 -158.0234375 221.9140625 C-157.91496994 220.65220627 -157.80650238 219.39035004 -157.69474792 218.09025574 C-157.34124866 213.90788365 -157.01183915 209.72378453 -156.6875 205.5390625 C-156.63118786 204.81904179 -156.57487572 204.09902107 -156.51685715 203.35718155 C-152.12269823 146.82833876 -150.42608494 86.95093993 -158.97875977 30.78857422 C-161.26985256 15.34590489 -161.26985256 15.34590489 -157.05078125 8.48828125 C-153.96782211 4.57996298 -151.33669913 2.44341834 -146.3125 1.5390625 C-140.20060448 0.94758874 -135.23202532 1.62111718 -130.3125 5.5390625 C-126.28592182 10.06356747 -124.3088667 14.58546893 -123.1875 20.5390625 C-123.02918701 21.33304443 -122.87087402 22.12702637 -122.70776367 22.94506836 C-119.21528408 41.81711334 -118.07426492 61.38986859 -117.3125 80.5390625 C-116.71824219 79.41371094 -116.12398437 78.28835937 -115.51171875 77.12890625 C-108.16025505 63.42578992 -99.92325665 51.05655243 -89.28515625 39.66796875 C-87.576955 37.82446443 -86.00562081 35.93783041 -84.4375 33.9765625 C-80.33657996 29.16194643 -75.30055613 25.38659891 -70.3125 21.5390625 C-69.15621094 20.641875 -69.15621094 20.641875 -67.9765625 19.7265625 C-53.26559785 8.88161928 -18.13613057 -11.45762303 0 0 Z " fill="#F0F0F0" transform="translate(1425.3125,161.4609375)"/>
<path d="M0 0 C4.95243472 2.87352089 8.59839903 6.36131567 10.38080597 11.97973633 C10.82614441 14.3264112 10.83918671 16.40200917 10.75085449 18.7890625 C10.71870346 19.73328568 10.68655243 20.67750885 10.65342712 21.65034485 C10.61246414 22.68225449 10.57150116 23.71416412 10.52929688 24.77734375 C10.49034805 25.8725383 10.45139923 26.96773285 10.41127014 28.09611511 C10.27957863 31.76090949 10.13974882 35.42534844 10 39.08984375 C9.9047245 41.69830505 9.80996808 44.30678536 9.71569824 46.9152832 C9.48860715 53.17519759 9.25570264 59.43488184 9.02067709 65.69450283 C8.76034814 72.63323964 8.50535105 79.57216787 8.2512058 86.51113355 C8.1246016 89.96757721 7.99777289 93.42401263 7.8709259 96.88044739 C7.84562485 97.56998278 7.82032379 98.25951818 7.79425603 98.96994859 C7.61270942 103.91547132 7.43032285 108.8609627 7.24760437 113.80644226 C3.1175233 221.41823544 3.1175233 221.41823544 1.59375 329.08984375 C1.59309414 329.75760708 1.59243828 330.42537041 1.59176254 331.11336899 C1.58101557 344.55461996 1.63573002 357.95924084 2.54467773 371.3737793 C3.65385524 388.79668004 3.65385524 388.79668004 -0.21875 394.08984375 C-4.88555392 398.90248529 -8.91665383 400.2573872 -15.53125 400.40234375 C-20.95719272 400.34808432 -24.19018162 400.01511551 -28.21875 396.08984375 C-40.99235741 381.89694662 -35.42320455 346.81203838 -35.40625 329.02734375 C-35.40564575 327.8163501 -35.4050415 326.60535645 -35.40441895 325.35766602 C-35.28612052 234.86802391 -31.23661568 144.35578951 -27.62553024 53.95422745 C-27.53235551 51.61756794 -27.43997069 49.28087819 -27.34768677 46.94418335 C-27.18001502 42.71130812 -27.00660603 38.47868995 -26.83203125 34.24609375 C-26.78427551 33.04132889 -26.73651978 31.83656403 -26.68731689 30.59529114 C-25.78754274 9.30719089 -25.78754274 9.30719089 -18.78125 2.83984375 C-13.03703378 -1.08303562 -6.66452092 -2.73386157 0 0 Z " fill="#F0F0F0" transform="translate(1966.21875,33.91015625)"/>
<path d="M0 0 C4.57498557 3.40464042 8.8610727 7.52071811 10.6875 13 C11.54077894 20.79832147 11.41753333 26.87967794 6.44921875 33.19140625 C1.70237976 38.06454694 -3.05786481 39.67668431 -9.82421875 40.09765625 C-16.61330422 39.83120863 -21.61058154 36.70191846 -26.3125 32 C-29.79418688 26.7174406 -31.06449061 20.82210105 -29.83984375 14.59765625 C-27.97200623 8.46339206 -25.42690814 4.03522163 -19.8125 0.6875 C-13.54012927 -2.2020191 -6.51624007 -1.96716681 0 0 Z " fill="#0074D8" transform="translate(684.3125,476)"/>
<path d="M0 0 C0.66 0.33 1.32 0.66 2 1 C-5.26 8.26 -12.52 15.52 -20 23 C-20 19.54574076 -19.65669359 19.25654927 -17.40234375 16.85546875 C-16.84740234 16.26056641 -16.29246094 15.66566406 -15.72070312 15.05273438 C-14.83801758 14.12944336 -14.83801758 14.12944336 -13.9375 13.1875 C-13.37611328 12.58357422 -12.81472656 11.97964844 -12.23632812 11.35742188 C-8.38311741 7.26641301 -4.32001278 3.59359025 0 0 Z " fill="#D7D7D7" transform="translate(1462,185)"/>
<path d="M0 0 C0.66 0.33 1.32 0.66 2 1 C-3.94 6.94 -9.88 12.88 -16 19 C-16.66 18.67 -17.32 18.34 -18 18 C-12.31481712 11.5575694 -6.66474693 5.45466718 0 0 Z " fill="#D5D5D5" transform="translate(1352,185)"/>
<path d="M0 0 C-1.299375 0.8353125 -1.299375 0.8353125 -2.625 1.6875 C-5.95945073 3.90252798 -8.96205756 6.39604933 -12 9 C-10.80786603 4.36392345 -8.47097229 2.50173811 -4.75390625 -0.1796875 C-3 -1 -3 -1 0 0 Z " fill="#D3D3D3" transform="translate(1697,155)"/>
<path d="M0 0 C0.66 0.33 1.32 0.66 2 1 C-0.64 3.64 -3.28 6.28 -6 9 C-6.33 8.34 -6.66 7.68 -7 7 C-4.78071806 4.09197539 -3.07030857 2.04687238 0 0 Z " fill="#D5D5D5" transform="translate(938,154)"/>
<path d="M0 0 C0.66 0.33 1.32 0.66 2 1 C-0.31 3.31 -2.62 5.62 -5 8 C-5 5 -5 5 -2.5 2.3125 C-1.675 1.549375 -0.85 0.78625 0 0 Z " fill="#D0D0D1" transform="translate(670,160)"/>
</svg>
